<svg width="28" height="29" viewBox="0 0 28 29" fill="none" xmlns="http://www.w3.org/2000/svg">
<g id="Atomo" clip-path="url(#clip0_552_19798)">
<path id="Vector" d="M0.59274 14.3327C0.592089 16.6852 1.20679 18.9823 2.37562 21.007L0.480957 27.9247L7.5604 26.0685C9.51848 27.1344 11.7124 27.693 13.9418 27.6931H13.9477C21.3074 27.6931 27.2984 21.7043 27.3016 14.3432C27.303 10.7762 25.9152 7.4221 23.3936 4.89862C20.8726 2.37537 17.5196 0.985026 13.9471 0.983398C6.58648 0.983398 0.595887 6.97193 0.592849 14.3327" fill="url(#paint0_linear_552_19798)"/>
<path id="Vector_2" d="M0.116124 14.3281C0.115364 16.7653 0.752093 19.1445 1.9626 21.2417L0 28.4074L7.33329 26.4847C9.35385 27.5863 11.6288 28.1671 13.9437 28.168H13.9496C21.5735 28.168 27.7797 21.9637 27.7829 14.3392C27.7842 10.644 26.3465 7.16932 23.7349 4.55544C21.123 1.94189 17.6501 0.501519 13.9496 0.5C6.32453 0.5 0.119163 6.70341 0.116124 14.3281ZM4.48326 20.8805L4.20944 20.4459C3.0584 18.6157 2.45087 16.5007 2.45174 14.329C2.45423 7.99152 7.61188 2.8355 13.954 2.8355C17.0253 2.83681 19.9117 4.03408 22.0827 6.20636C24.2535 8.37885 25.4481 11.2668 25.4473 14.3383C25.4445 20.6757 20.2868 25.8324 13.9496 25.8324H13.9451C11.8817 25.8313 9.85795 25.2772 8.09309 24.23L7.67309 23.9809L3.32136 25.1219L4.48326 20.8804V20.8805Z" fill="url(#paint1_linear_552_19798)"/>
<path id="Vector_3" d="M10.492 8.54716C10.2331 7.97164 9.96058 7.96003 9.71433 7.94994C9.51269 7.94125 9.28218 7.94191 9.05188 7.94191C8.82137 7.94191 8.44684 8.02862 8.13027 8.37428C7.81337 8.72026 6.92041 9.55636 6.92041 11.2569C6.92041 12.9575 8.15903 14.6009 8.3317 14.8318C8.50458 15.0622 10.7229 18.6635 14.2361 20.049C17.1559 21.2003 17.7501 20.9713 18.3838 20.9136C19.0176 20.8561 20.4289 20.0777 20.7168 19.2706C21.005 18.4636 21.005 17.7719 20.9186 17.6273C20.8322 17.4833 20.6017 17.3968 20.256 17.224C19.9102 17.0511 18.2109 16.2149 17.8941 16.0996C17.5772 15.9843 17.3468 15.9268 17.1163 16.2729C16.8858 16.6184 16.2239 17.3968 16.0221 17.6273C15.8206 17.8584 15.6189 17.8871 15.2733 17.7142C14.9274 17.5408 13.8143 17.1763 12.4936 15.9989C11.4661 15.0827 10.7724 13.9513 10.5707 13.6052C10.3691 13.2596 10.5491 13.0723 10.7224 12.9001C10.8777 12.7452 11.0682 12.4965 11.2412 12.2947C11.4135 12.0929 11.4711 11.9488 11.5863 11.7183C11.7017 11.4876 11.6439 11.2857 11.5577 11.1129C11.4711 10.94 10.7994 9.23056 10.492 8.54716Z" fill="white"/>
</g>
<defs>
<linearGradient id="paint0_linear_552_19798" x1="1341.51" y1="2695.12" x2="1341.51" y2="0.983398" gradientUnits="userSpaceOnUse">
<stop stop-color="#1FAF38"/>
<stop offset="1" stop-color="#60D669"/>
</linearGradient>
<linearGradient id="paint1_linear_552_19798" x1="1389.15" y1="2791.24" x2="1389.15" y2="0.5" gradientUnits="userSpaceOnUse">
<stop stop-color="#F9F9F9"/>
<stop offset="1" stop-color="white"/>
</linearGradient>
<clipPath id="clip0_552_19798">
<rect width="27.7829" height="28" fill="white" transform="translate(0 0.5)"/>
</clipPath>
</defs>
</svg>
