<svg width="67" height="64" viewBox="0 0 67 64" fill="none" xmlns="http://www.w3.org/2000/svg">
<g id="Avatar Reviews">
<g id="OBJECTS">
<g id="Group">
<path id="Vector" d="M34.0361 30.6087C28.6213 30.321 22.9159 30.0346 18.3291 27.0511C18.1818 29.3591 21.601 31.103 23.8115 31.6898C26.2423 32.335 28.9968 32.6125 31.7327 32.5491C32.5712 31.9902 33.3421 31.3451 34.0374 30.6087H34.0361Z" fill="url(#paint0_linear_556_4293)"/>
<path id="Vector_2" d="M45.1882 26.0587C44.4744 24.6354 42.5093 23.7368 41.0777 23.169C39.4006 22.5049 37.6186 22.0866 36.3953 21.8344C32.9509 21.1221 29.3459 21.1639 25.9226 21.97C23.5715 22.5239 20.5583 23.482 19.0351 25.3984C18.5787 25.9738 18.3624 26.5264 18.3279 27.0498C22.9147 30.0321 28.6201 30.3198 34.0349 30.6075C33.3409 31.3451 32.5687 31.9902 31.7302 32.5479C34.2312 32.4908 36.7177 32.1486 38.9242 31.5327C39.6951 31.3172 40.9503 30.9383 42.1537 30.392C44.2342 29.4478 46.1634 28.0067 45.1869 26.0574L45.1882 26.0587Z" fill="#EBE32D"/>
<path id="Vector_3" d="M44.1002 27.1551C44.4823 26.9396 44.8472 26.6988 45.1895 26.4314C48.9365 23.4935 46.5057 20.3401 42.7136 18.8725C40.8017 18.1323 38.7703 17.6672 37.3771 17.3845C33.4511 16.5899 29.3419 16.638 25.441 17.5353C22.0363 18.3199 13.6773 21.2324 17.9763 25.8762C18.5415 26.4871 19.2911 26.9206 20.0554 27.297C20.6246 27.5784 21.2044 27.8306 21.7935 28.0575C26.1309 29.733 31.5577 29.7304 36.1339 29.1918C38.7146 28.8889 41.7464 28.4833 44.1015 27.1538L44.1002 27.1551Z" fill="#F4ED67"/>
<path id="Vector_4" d="M24.365 25.6949C23.6671 25.6949 23.6671 26.425 24.365 26.425C24.7139 26.425 24.7139 25.6949 24.365 25.6949Z" fill="#FFB300"/>
<path id="Vector_5" d="M25.7607 27.4579C25.0628 27.4579 25.0628 28.2209 25.7607 28.2209C26.1097 28.2209 26.1097 27.4579 25.7607 27.4579Z" fill="#FFD54F"/>
<path id="Vector_6" d="M27.5041 26.9345C27.1552 26.9345 27.1552 27.1614 27.5041 27.1614V26.9345Z" fill="#FFD54F"/>
<path id="Vector_7" d="M28.8046 28.4414C28.7635 28.463 28.721 28.4845 28.6799 28.5048C28.4557 28.6202 28.7688 28.9193 28.8895 28.7051C28.9121 28.6658 28.9347 28.6252 28.9559 28.5859C29.009 28.4921 28.9041 28.3908 28.8046 28.4414Z" fill="#FFD54F"/>
<path id="Vector_8" d="M31.5684 27.7254C31.5498 27.7101 31.5313 27.6949 31.5127 27.6797C31.3601 27.5542 31.1067 27.6316 31.1067 27.8407C31.1067 28.0498 31.3601 28.1271 31.5127 28.0016C31.5313 27.9864 31.5498 27.9712 31.5684 27.956C31.6348 27.9015 31.6348 27.7811 31.5684 27.7266V27.7254Z" fill="#FFD54F"/>
<path id="Vector_9" d="M33.2055 27.2919C33.1896 27.2539 33.175 27.2159 33.159 27.1779C33.0874 27.0017 32.8605 26.9142 32.7053 27.0638C32.55 27.2133 32.6403 27.4288 32.8247 27.4972C32.8645 27.5125 32.9043 27.5264 32.9441 27.5416C33.0887 27.5948 33.2612 27.4301 33.2055 27.2919Z" fill="#FFD54F"/>
<path id="Vector_10" d="M34.5535 28.0752C34.3373 28.0752 34.2285 28.2932 34.3187 28.4656C34.3253 28.4782 34.332 28.4909 34.3386 28.5036C34.4195 28.6582 34.6862 28.6582 34.7672 28.5036C34.7738 28.4909 34.7804 28.4782 34.7871 28.4656C34.8773 28.2932 34.7685 28.0752 34.5522 28.0752H34.5535Z" fill="#FFD54F"/>
<path id="Vector_11" d="M36.9221 27.1931C36.5732 27.1931 36.5732 27.6962 36.9221 27.6962C37.2711 27.6962 37.2711 27.1931 36.9221 27.1931Z" fill="#F4ED67"/>
<path id="Vector_12" d="M38.4347 26.3122C38.3484 26.1462 38.0963 26.1323 37.9676 26.2552C37.8389 26.3781 37.8535 26.6189 38.0273 26.7013C38.16 26.7634 38.3139 26.8217 38.4373 26.7039C38.5594 26.5873 38.4997 26.439 38.4347 26.3122Z" fill="#FFD54F"/>
<path id="Vector_13" d="M40.7578 27.4389C40.4089 27.4389 40.4089 27.8445 40.7578 27.8445C41.1068 27.8445 41.1068 27.4389 40.7578 27.4389Z" fill="#FFD54F"/>
<path id="Vector_14" d="M43.1992 25.5822C42.5013 25.5822 42.5013 26.7342 43.1992 26.7342C44.2461 26.7342 44.2461 25.5822 43.1992 25.5822Z" fill="#FFD54F"/>
<path id="Vector_15" d="M45.293 23.7495C44.944 23.7495 44.944 24.4148 45.293 24.4148C45.9909 24.4148 45.9909 23.7495 45.293 23.7495Z" fill="#FFD54F"/>
<path id="Vector_16" d="M33.4153 25.2678C32.9987 24.2716 31.4596 23.8116 29.7413 23.5264C25.599 23.7076 21.5522 23.3211 18.0507 20.9079C17.8039 21.79 18.048 22.7837 19.0657 23.8838C19.5858 24.4465 20.2784 24.8458 20.9816 25.1943C21.5057 25.4529 22.0404 25.6861 22.5831 25.8952C25.5499 27.0409 29.0686 27.3337 32.4109 27.207C33.3516 26.7875 33.8412 26.1854 33.414 25.2678H33.4153Z" fill="#FFEBCD"/>
<path id="Vector_17" d="M45.784 20.8699C45.646 20.9497 45.504 21.027 45.3607 21.1018C41.5833 23.3477 37.3069 23.8242 32.7506 23.6759C31.8775 23.6481 31.0151 23.5898 30.1579 23.5086C30.0186 23.5162 29.8793 23.5213 29.74 23.5264C31.4582 23.8116 32.9974 24.2716 33.414 25.2678C33.8412 26.1854 33.3516 26.7874 32.4109 27.207C33.5732 27.1626 34.7129 27.0688 35.8009 26.9408C38.1799 26.6607 40.9742 26.2868 43.1449 25.0625C43.4979 24.8635 43.8336 24.6417 44.148 24.3946C45.6606 23.2083 46.0812 21.9852 45.7813 20.8699H45.784Z" fill="#FFE2B6"/>
<path id="Vector_18" d="M44.1002 23.0017C44.4823 22.7863 44.8472 22.5455 45.1895 22.278C48.9365 19.3402 46.5057 16.1868 42.7136 14.7192C40.8017 13.979 38.7703 13.5138 37.3771 13.2312C33.4511 12.4365 29.3419 12.4847 25.441 13.382C22.0363 14.1666 13.6773 17.0791 17.9763 21.7229C18.5415 22.3338 19.2911 22.7673 20.0554 23.1437C20.6246 23.4251 21.2044 23.6773 21.7935 23.9041C26.1309 25.5797 31.5577 25.5771 36.1339 25.0385C38.7146 24.7356 41.7464 24.33 44.1015 23.0005L44.1002 23.0017Z" fill="#F4ED67"/>
<path id="Vector_19" d="M45.224 15.1614C45.0767 16.8851 44.1519 18.4111 42.1126 19.3338C36.0065 21.8699 29.2211 21.8027 22.7236 20.4339C27.8545 22.4605 33.7748 22.2057 39.313 21.3629C40.7234 21.1487 42.1603 20.8889 43.393 20.202C44.6269 19.515 45.6366 18.3148 45.6857 16.9523C45.7096 16.2907 45.5358 15.6976 45.2227 15.1614H45.224Z" fill="#FCBF4D"/>
<path id="Vector_20" d="M42.1113 19.3351C44.1506 18.4124 45.0768 16.8864 45.2227 15.1627C44.4531 13.8459 42.8238 12.8852 41.0764 12.1932C39.3993 11.529 37.6173 11.1108 36.394 10.8586C32.9495 10.1463 29.3446 10.1881 25.9213 10.9942C22.9333 11.6976 15.6013 14.311 19.3721 18.4783C19.8683 19.0258 20.5264 19.4149 21.1965 19.7533C21.6954 20.0055 22.2049 20.2324 22.721 20.4364C29.2185 21.8053 36.0039 21.8712 42.11 19.3363L42.1113 19.3351Z" fill="url(#paint1_linear_556_4293)"/>
<path id="Vector_21" d="M25.5897 17.8116C24.6755 17.5708 23.756 17.349 22.8604 17.0499C22.0125 16.7673 21.1063 16.0981 20.2014 16.1044C20.0886 16.1044 20.0342 16.2159 20.0793 16.3072C20.4535 17.0448 21.5362 17.4415 22.2965 17.733C23.338 18.1323 24.3729 18.4162 25.4968 18.472C25.9001 18.4922 25.9665 17.9105 25.591 17.8116H25.5897Z" fill="#FFB300"/>
<path id="Vector_22" d="M28.5683 18.2438C28.4781 18.1969 28.3958 18.164 28.291 18.1728C27.9248 18.202 27.9248 18.6861 28.291 18.7153C28.3958 18.7229 28.4781 18.6912 28.5683 18.6443C28.7262 18.5619 28.7262 18.3262 28.5683 18.2438Z" fill="#FFB300"/>
<path id="Vector_23" d="M32.5434 18.5328C32.497 18.5264 32.4439 18.4669 32.4373 18.5138C32.493 18.1399 31.9543 18.0714 31.9039 18.4453C31.8827 18.6037 31.9596 18.7533 32.0751 18.8636C32.2237 19.0042 32.4174 19.0004 32.5978 18.9269C32.7703 18.8572 32.7305 18.5568 32.5434 18.5328Z" fill="#FFB300"/>
<path id="Vector_24" d="M36.4311 17.9282C36.2413 17.2704 35.2661 17.8509 34.9211 18.0575C34.5164 18.3009 34.7765 18.9067 35.2462 18.7939C35.6562 18.695 36.5943 18.4935 36.4311 17.9282Z" fill="#FFB300"/>
<path id="Vector_25" d="M38.1587 12.7166C36.9951 11.6431 34.9518 11.7077 33.4087 11.6633C31.7727 11.6164 29.8806 11.695 28.4344 12.491C27.962 12.7508 28.0854 13.4098 28.5803 13.5581C29.9204 13.9624 31.4291 13.9206 32.8249 14.0068C34.3666 14.1019 36.2547 14.8294 37.7209 14.3021C38.3922 14.06 38.7372 13.2489 38.1587 12.7153V12.7166Z" fill="#FFB300"/>
<path id="Vector_26" d="M24.365 21.5403C23.6671 21.5403 23.6671 22.2704 24.365 22.2704C24.7139 22.2704 24.7139 21.5403 24.365 21.5403Z" fill="#FFD54F"/>
<path id="Vector_27" d="M25.7607 23.3046C25.0628 23.3046 25.0628 24.0676 25.7607 24.0676C26.1097 24.0676 26.1097 23.3046 25.7607 23.3046Z" fill="#FFD54F"/>
<path id="Vector_28" d="M27.5041 22.7812C27.1552 22.7812 27.1552 23.0081 27.5041 23.0081V22.7812Z" fill="#FFD54F"/>
<path id="Vector_29" d="M28.8046 24.2868C28.7635 24.3084 28.721 24.3299 28.6799 24.3502C28.4557 24.4656 28.7688 24.7647 28.8895 24.5505C28.9121 24.5112 28.9347 24.4706 28.9559 24.4313C29.009 24.3375 28.9041 24.2362 28.8046 24.2868Z" fill="#FFD54F"/>
<path id="Vector_30" d="M31.5684 23.5707C31.5498 23.5555 31.5313 23.5403 31.5127 23.5251C31.3601 23.3996 31.1067 23.477 31.1067 23.6861C31.1067 23.8952 31.3601 23.9725 31.5127 23.847C31.5313 23.8318 31.5498 23.8166 31.5684 23.8014C31.6348 23.7469 31.6348 23.6265 31.5684 23.572V23.5707Z" fill="#FFD54F"/>
<path id="Vector_31" d="M33.2055 23.1373C33.1896 23.0993 33.175 23.0613 33.159 23.0233C33.0874 22.8471 32.8605 22.7596 32.7053 22.9092C32.55 23.0575 32.6403 23.2742 32.8247 23.3426C32.8645 23.3579 32.9043 23.3718 32.9441 23.387C33.0887 23.4402 33.2612 23.2755 33.2055 23.1373Z" fill="#FFD54F"/>
<path id="Vector_32" d="M34.5535 23.9206C34.3373 23.9206 34.2285 24.1386 34.3187 24.311C34.3253 24.3236 34.332 24.3363 34.3386 24.349C34.4195 24.5036 34.6862 24.5036 34.7672 24.349C34.7738 24.3363 34.7804 24.3236 34.7871 24.311C34.8773 24.1386 34.7685 23.9206 34.5522 23.9206H34.5535Z" fill="#FFD54F"/>
<path id="Vector_33" d="M36.9221 23.0385C36.5732 23.0385 36.5732 23.5416 36.9221 23.5416C37.2711 23.5416 37.2711 23.0385 36.9221 23.0385Z" fill="#FFD54F"/>
<path id="Vector_34" d="M38.4347 22.1576C38.3484 21.9916 38.0963 21.9776 37.9676 22.1006C37.8389 22.2235 37.8535 22.4643 38.0273 22.5467C38.16 22.6088 38.3139 22.6671 38.4373 22.5493C38.5607 22.4314 38.4997 22.2844 38.4347 22.1576Z" fill="#FFD54F"/>
<path id="Vector_35" d="M40.7578 23.2856C40.4089 23.2856 40.4089 23.6912 40.7578 23.6912C41.1068 23.6912 41.1068 23.2856 40.7578 23.2856Z" fill="#FFD54F"/>
<path id="Vector_36" d="M43.1992 21.4288C42.5013 21.4288 42.5013 22.5809 43.1992 22.5809C44.2461 22.5809 44.2461 21.4288 43.1992 21.4288Z" fill="#FFD54F"/>
<path id="Vector_37" d="M45.293 19.5948C44.944 19.5948 44.944 20.2602 45.293 20.2602C45.9909 20.2602 45.9909 19.5948 45.293 19.5948Z" fill="#FFD54F"/>
</g>
<g id="Group_2">
<path id="Vector_38" d="M48.8223 49.2905C43.4274 47.7151 37.7393 46.07 33.8822 41.9673C33.1326 44.2639 36.1325 46.838 38.213 47.9546C40.5004 49.1828 43.2112 50.1168 45.9895 50.7037C46.982 50.3386 47.928 49.8697 48.8223 49.2905Z" fill="url(#paint2_linear_556_4293)"/>
<path id="Vector_39" d="M61.2719 47.3425C60.9217 45.7354 59.1702 44.3615 57.8713 43.4477C56.3494 42.3793 54.6577 41.5339 53.4901 40.9877C50.1969 39.4503 46.5441 38.6366 42.8768 38.6379C40.3585 38.6379 37.0653 38.8914 35.0273 40.4655C34.4156 40.9382 34.0534 41.4452 33.8835 41.9661C37.7406 46.0675 43.4287 47.7126 48.8236 49.2893C47.9307 49.8685 46.9833 50.3374 45.9909 50.7024C48.5331 51.2386 51.1323 51.4832 53.5219 51.3856C54.3565 51.3514 55.7231 51.2652 57.0805 51.0003C59.4276 50.5415 61.7509 49.5427 61.2719 47.3425Z" fill="#7B1FA2"/>
<g id="Group_3">
<path id="Vector_40" d="M59.8867 48.1917C60.3286 48.0649 60.7598 47.9078 61.1751 47.7189C65.7248 45.6416 64.0901 41.8787 60.6404 39.4959C58.9009 38.2944 56.9704 37.3413 55.6369 36.7266C51.878 34.9915 47.7144 34.0638 43.5402 34.0448C39.8967 34.0283 30.6965 34.9865 33.8291 40.6974C34.2405 41.4478 34.8866 42.065 35.5593 42.6264C36.0609 43.046 36.581 43.4376 37.117 43.8077C41.0617 46.5288 46.5455 47.8153 51.3075 48.359C53.993 48.6657 57.1614 48.9749 59.8854 48.1917H59.8867Z" fill="#AB47BC"/>
<path id="Vector_41" d="M40.4738 42.0637C39.7958 41.904 39.6061 42.6416 40.2841 42.8013C40.6224 42.8812 40.8121 42.1435 40.4738 42.0637Z" fill="#8E24AA"/>
<path id="Vector_42" d="M41.0311 44.084C40.6927 44.0041 40.4937 44.7747 40.8321 44.8546C41.1704 44.9344 41.3694 44.1638 41.0311 44.084Z" fill="#8E24AA"/>
<path id="Vector_43" d="M43.1992 44.0333C42.8608 43.9534 42.8011 44.1828 43.1394 44.2627L43.1992 44.0333Z" fill="#8E24AA"/>
<path id="Vector_44" d="M44.1016 45.8583C44.0538 45.8698 44.006 45.8812 43.9583 45.8926C43.7022 45.9547 43.941 46.3324 44.1175 46.1435C44.1507 46.108 44.1838 46.0738 44.2157 46.0383C44.294 45.9559 44.213 45.8292 44.1003 45.8571L44.1016 45.8583Z" fill="#8E24AA"/>
<path id="Vector_45" d="M47.0801 45.7925C47.0655 45.7722 47.0509 45.7532 47.0363 45.7329C46.9156 45.5694 46.6383 45.5884 46.5839 45.7988C46.5295 46.0092 46.7656 46.1486 46.9527 46.0574C46.9753 46.046 46.9978 46.0358 47.0204 46.0244C47.1013 45.9851 47.1332 45.8635 47.0801 45.7925Z" fill="#8E24AA"/>
<path id="Vector_46" d="M48.8475 45.743C48.8422 45.7012 48.8355 45.6594 48.8302 45.6163C48.8037 45.4211 48.5967 45.2791 48.4016 45.3932C48.2053 45.506 48.2411 45.7468 48.4096 45.8596C48.4454 45.8837 48.4826 45.9078 48.5184 45.9331C48.6511 46.0218 48.8674 45.8964 48.8475 45.743Z" fill="#8E24AA"/>
<path id="Vector_47" d="M50.0059 46.8545C49.7883 46.8039 49.6198 46.9978 49.6676 47.1929C49.6716 47.2069 49.6742 47.2221 49.6782 47.236C49.7206 47.4122 49.9887 47.4756 50.1121 47.3374C50.1227 47.326 50.132 47.3146 50.1426 47.3032C50.2792 47.1499 50.2248 46.904 50.0072 46.8533L50.0059 46.8545Z" fill="#8E24AA"/>
<path id="Vector_48" d="M52.954 46.6024C52.6157 46.5225 52.4843 47.0307 52.8227 47.1106L52.954 46.6024Z" fill="#8E24AA"/>
<path id="Vector_49" d="M54.3829 45.9953C54.3392 45.8077 54.0884 45.7329 53.9265 45.8267C53.7646 45.9205 53.7169 46.1676 53.8708 46.2918C53.9875 46.3856 54.1295 46.4807 54.2834 46.392C54.4373 46.3032 54.4148 46.1385 54.3829 45.9965V45.9953Z" fill="#8E24AA"/>
<path id="Vector_50" d="M56.2764 47.648C55.938 47.5681 55.8319 47.9775 56.1702 48.0573C56.5085 48.1372 56.6147 47.7278 56.2764 47.648Z" fill="#8E24AA"/>
<path id="Vector_51" d="M59.1305 46.3299C58.7922 46.25 58.4923 47.4135 58.8307 47.4933C60.1854 47.8115 60.4852 46.648 59.1305 46.3299Z" fill="#8E24AA"/>
<path id="Vector_52" d="M62.3176 45.1144C61.9793 45.0345 61.8054 45.7063 62.1451 45.7861C62.4848 45.8659 62.6573 45.1942 62.3176 45.1144Z" fill="#8E24AA"/>
</g>
<g id="Group_4">
<path id="Vector_53" d="M49.5853 43.7494C49.4234 42.6442 47.9878 41.814 46.3266 41.1182C42.0954 40.3172 38.1082 38.9674 35.1998 35.6974C34.7208 36.5301 34.7089 37.5922 35.4506 38.9446C35.8301 39.6366 36.4245 40.2044 37.0454 40.7228C37.5085 41.1093 37.9875 41.4705 38.4811 41.8115C41.1798 43.6733 44.6575 44.8051 48.0661 45.4705C49.1249 45.2703 49.7764 44.7785 49.584 43.7506L49.5853 43.7494Z" fill="#FFEBCD"/>
<path id="Vector_54" d="M63.2237 42.2437C63.0632 42.2918 62.9 42.3362 62.7368 42.3768C58.337 43.7481 53.8935 43.2145 49.3305 41.9826C48.4561 41.7469 47.599 41.4832 46.7551 41.1981C46.6118 41.1727 46.4699 41.1436 46.3279 41.1169C47.9891 41.8128 49.4234 42.6429 49.5866 43.7481C49.779 44.776 49.1275 45.2677 48.0687 45.468C49.2535 45.6987 50.4304 45.8748 51.5622 46.0041C54.0381 46.2867 56.9584 46.5719 59.4688 45.8508C59.8761 45.7329 60.2742 45.5897 60.6563 45.4148C62.4926 44.5757 63.2357 43.4389 63.2237 42.2424V42.2437Z" fill="#FFE2B6"/>
<path id="Vector_55" d="M60.968 43.9965C61.4099 43.8697 61.8411 43.7126 62.2564 43.5237C66.8061 41.4464 65.1714 37.6835 61.7217 35.3007C59.9822 34.0992 58.0517 33.1461 56.7182 32.5314C52.9593 30.7963 48.7957 29.8686 44.6215 29.8496C40.978 29.8331 31.7778 30.7913 34.9104 36.5023C35.3218 37.2526 35.9679 37.8698 36.6406 38.4313C37.1422 38.8495 37.6623 39.2424 38.1983 39.6125C42.143 42.3336 47.6268 43.6201 52.3888 44.1638C55.0743 44.4705 58.2427 44.7798 60.9667 43.9965H60.968Z" fill="#AB47BC"/>
<path id="Vector_56" d="M64.1432 36.3438C63.5462 38.0498 62.214 39.3717 59.9133 39.8204C53.0868 40.9319 46.2496 39.2538 40.0427 36.3286C44.6972 39.5935 50.7449 40.7418 56.5591 41.2056C58.0398 41.3235 59.559 41.4021 60.9827 41.0016C62.4077 40.6011 63.7399 39.6277 64.1446 38.264C64.3409 37.6024 64.3197 36.9611 64.1432 36.3451V36.3438Z" fill="#7B1FA2"/>
<path id="Vector_57" d="M59.9133 39.8204C62.214 39.3717 63.5461 38.051 64.1432 36.3438C63.7093 34.8305 62.3135 33.4744 60.7279 32.3603C59.2061 31.2919 57.5144 30.4465 56.3468 29.9003C53.0536 28.3629 49.4008 27.5492 45.7335 27.5505C42.5332 27.5505 34.4461 28.4516 37.1701 33.5555C37.5284 34.226 38.0923 34.776 38.6814 35.2767C39.1206 35.6493 39.5757 35.9991 40.044 36.3286C46.2509 39.2538 53.0881 40.9319 59.9146 39.8204H59.9133Z" fill="url(#paint3_linear_556_4293)"/>
<path id="Vector_58" d="M43.6212 34.3591C42.7601 33.899 41.8897 33.4567 41.0617 32.9421C40.2789 32.4554 39.5372 31.5644 38.6217 31.3553C38.5076 31.3287 38.424 31.4288 38.4466 31.5302C38.6323 32.3642 39.6221 33.022 40.3147 33.4972C41.2621 34.1474 42.2347 34.6797 43.3558 35.0029C43.7579 35.1195 43.9768 34.5479 43.6225 34.3578L43.6212 34.3591Z" fill="#BA68C8"/>
<path id="Vector_59" d="M46.5162 35.5035C46.438 35.4351 46.3623 35.3819 46.2535 35.3654C45.8767 35.3071 45.7507 35.7976 46.1129 35.9129C46.2164 35.9459 46.3093 35.9332 46.4114 35.9066C46.5919 35.8609 46.6542 35.6227 46.5162 35.5023V35.5035Z" fill="#BA68C8"/>
<path id="Vector_60" d="M50.4568 36.738C50.4117 36.7203 50.3732 36.648 50.3533 36.6937C50.5072 36.3299 49.9805 36.1322 49.8319 36.4972C49.7695 36.6518 49.808 36.8217 49.8969 36.9598C50.011 37.1372 50.2074 37.1791 50.4091 37.1487C50.6015 37.1195 50.6399 36.8065 50.4568 36.738Z" fill="#BA68C8"/>
<path id="Vector_61" d="M54.5421 37.0511C54.5222 36.3413 53.3851 36.6962 52.9831 36.8229C52.5108 36.9725 52.6156 37.6468 53.1198 37.6442C53.5603 37.6417 54.5594 37.662 54.5421 37.0511Z" fill="#BA68C8"/>
<path id="Vector_62" d="M57.643 32.1956C56.7461 30.8356 54.667 30.4148 53.1186 30.0042C51.4786 29.5682 49.5467 29.1994 47.8789 29.6595C47.3336 29.8103 47.2871 30.5036 47.7489 30.7722C48.9974 31.4985 50.5326 31.8153 51.9191 32.2336C53.4516 32.6949 55.1698 33.8787 56.7872 33.6936C57.5276 33.6087 58.0889 32.8711 57.643 32.1956Z" fill="#BA68C8"/>
</g>
<path id="Vector_63" d="M41.5553 37.8686C40.8773 37.7089 40.6876 38.4465 41.3656 38.6062C41.7039 38.686 41.8937 37.9484 41.5553 37.8686Z" fill="#8E24AA"/>
<path id="Vector_64" d="M42.1126 39.8888C41.7743 39.8089 41.5753 40.5795 41.9136 40.6594C42.2519 40.7392 42.451 39.9686 42.1126 39.8888Z" fill="#8E24AA"/>
<path id="Vector_65" d="M44.2807 39.8381C43.9423 39.7583 43.8826 39.9877 44.221 40.0675L44.2807 39.8381Z" fill="#8E24AA"/>
<path id="Vector_66" d="M45.1829 41.6632C45.1351 41.6746 45.0873 41.686 45.0396 41.6987C44.7835 41.7608 45.0223 42.1385 45.1988 41.9496C45.232 41.9141 45.2651 41.8799 45.297 41.8444C45.3753 41.762 45.2943 41.6353 45.1816 41.6632H45.1829Z" fill="#8E24AA"/>
<path id="Vector_67" d="M48.1616 41.596C48.1471 41.5757 48.1325 41.5567 48.1179 41.5364C47.9971 41.3729 47.7198 41.3919 47.6654 41.6023C47.611 41.8127 47.8472 41.9521 48.0343 41.8609C48.0568 41.8495 48.0794 41.8393 48.1019 41.8279C48.1829 41.7886 48.2147 41.667 48.1616 41.596Z" fill="#8E24AA"/>
<path id="Vector_68" d="M49.9275 41.5466C49.9222 41.5048 49.9156 41.4629 49.9103 41.4199C49.8838 41.2247 49.6768 41.0827 49.4817 41.1968C49.2854 41.3096 49.3212 41.5504 49.4897 41.6632C49.5255 41.6873 49.5627 41.7114 49.5985 41.7367C49.7312 41.8254 49.9474 41.7 49.9275 41.5466Z" fill="#8E24AA"/>
<path id="Vector_69" d="M51.086 42.6581C50.8684 42.6074 50.6999 42.8013 50.7477 42.9965C50.7516 43.0104 50.7543 43.0256 50.7583 43.0396C50.8007 43.2157 51.0687 43.2791 51.1921 43.141C51.2028 43.1296 51.212 43.1182 51.2227 43.1067C51.3593 42.9534 51.3049 42.7075 51.0873 42.6568L51.086 42.6581Z" fill="#8E24AA"/>
<path id="Vector_70" d="M54.0353 42.4072C53.697 42.3273 53.5656 42.8355 53.904 42.9154L54.0353 42.4072Z" fill="#8E24AA"/>
<path id="Vector_71" d="M55.4645 41.7988C55.4207 41.6112 55.1699 41.5364 55.0081 41.6302C54.8462 41.724 54.7984 41.9711 54.9523 42.0954C55.0691 42.1891 55.2111 42.2842 55.365 42.1955C55.5189 42.1068 55.4963 41.942 55.4645 41.8V41.7988Z" fill="#8E24AA"/>
<path id="Vector_72" d="M57.3579 43.4515C57.0196 43.3716 56.9134 43.781 57.2518 43.8609C57.5901 43.9407 57.6962 43.5313 57.3579 43.4515Z" fill="#8E24AA"/>
<path id="Vector_73" d="M60.2118 42.1334C59.8735 42.0535 59.5736 43.217 59.912 43.2969C61.2666 43.615 61.5665 42.4515 60.2118 42.1334Z" fill="#8E24AA"/>
<path id="Vector_74" d="M63.3974 40.918C63.0591 40.8381 62.8853 41.5098 63.2249 41.5897C63.5646 41.6695 63.7371 40.9978 63.3974 40.918Z" fill="#8E24AA"/>
</g>
<g id="Group_5">
<path id="Vector_75" d="M23.4029 50.1194C17.6246 51.1282 11.5397 52.2081 5.91797 50.1789C6.37572 52.6453 10.4398 53.6529 12.9236 53.7353C15.6542 53.8253 18.629 53.4502 21.4923 52.7214C22.226 51.9305 22.8682 51.0636 23.4029 50.1194Z" fill="#62C1A9"/>
<path id="Vector_76" d="M33.9392 42.6264C32.8101 41.3007 30.5027 40.8305 28.8429 40.5795C26.9004 40.2867 24.9128 40.2779 23.5581 40.3083C19.7422 40.3919 15.9567 41.3108 12.5667 42.9889C10.2381 44.141 7.31908 45.8811 6.22444 48.2689C5.89539 48.985 5.81445 49.62 5.91927 50.1789C11.541 52.2081 17.6259 51.1282 23.4042 50.1194C22.8682 51.0636 22.2273 51.9292 21.4936 52.7214C24.1127 52.0547 26.639 51.0927 28.8004 49.909C29.5554 49.4958 30.7747 48.7924 31.8986 47.9255C33.8384 46.4274 35.4876 44.4426 33.9406 42.6264H33.9392Z" fill="#44B180"/>
<g id="Group_6">
<path id="Vector_77" d="M33.0834 44.0447C33.4284 43.7253 33.7495 43.3831 34.0374 43.0181C37.2032 39.0168 33.8065 36.2843 29.4227 35.6582C27.2122 35.3426 24.95 35.3438 23.4082 35.3844C19.0628 35.4997 14.748 36.5454 10.8789 38.4351C7.50084 40.0853 -0.526473 45.1777 5.23329 49.0269C5.99091 49.5326 6.89581 49.8076 7.8007 50.0193C8.47473 50.1777 9.15274 50.3032 9.8334 50.3995C14.8448 51.1131 20.5595 49.7949 25.2352 48.1194C27.8716 47.1752 30.9565 46.013 33.0847 44.0434L33.0834 44.0447Z" fill="#C4DFBA"/>
<path id="Vector_78" d="M11.8927 47.2931C11.5398 47.3742 11.7335 48.1435 12.0864 48.0624C12.4393 47.9813 12.2456 47.212 11.8927 47.2931Z" fill="#3E936B"/>
<path id="Vector_79" d="M13.7726 48.8254C13.0667 48.9876 13.2684 49.7912 13.9756 49.6289C14.3286 49.5478 14.1269 48.7443 13.7726 48.8254Z" fill="#3E936B"/>
<path id="Vector_80" d="M15.3993 47.8672C15.0464 47.9483 15.1061 48.1878 15.459 48.1067L15.3993 47.8672Z" fill="#3E936B"/>
<path id="Vector_81" d="M17.318 49.1042C17.2795 49.1372 17.2411 49.1689 17.2039 49.2018C16.9983 49.3767 17.4082 49.6163 17.4772 49.3615C17.4905 49.3146 17.5024 49.2665 17.5157 49.2196C17.5462 49.108 17.4082 49.0269 17.318 49.1042Z" fill="#3E936B"/>
<path id="Vector_82" d="M20.0381 47.6809C20.0142 47.6695 19.9916 47.6581 19.9677 47.6454C19.774 47.5504 19.5272 47.6936 19.583 47.9128C19.6387 48.1321 19.9266 48.1524 20.0527 47.9838C20.0686 47.9635 20.0832 47.942 20.0991 47.9217C20.1548 47.8482 20.123 47.7215 20.0381 47.6796V47.6809Z" fill="#3E936B"/>
<path id="Vector_83" d="M21.6475 46.8267C21.621 46.7899 21.5944 46.7544 21.5692 46.7177C21.4471 46.5491 21.1844 46.5123 21.061 46.7075C20.9363 46.9014 21.0889 47.108 21.3025 47.1359C21.349 47.1422 21.3941 47.1473 21.4405 47.1537C21.6077 47.1752 21.7444 46.9597 21.6488 46.8279L21.6475 46.8267Z" fill="#3E936B"/>
<path id="Vector_84" d="M23.2754 47.3248C23.0485 47.3767 22.9901 47.6327 23.1321 47.7924C23.1427 47.8038 23.1533 47.8165 23.164 47.8279C23.2913 47.9711 23.5713 47.9065 23.6164 47.724C23.6204 47.7088 23.6244 47.6936 23.627 47.6784C23.6774 47.4743 23.5036 47.2715 23.2767 47.3235L23.2754 47.3248Z" fill="#3E936B"/>
<path id="Vector_85" d="M25.7075 45.7836C25.3546 45.8647 25.4886 46.3945 25.8415 46.3133C26.1945 46.2322 26.0604 45.7024 25.7075 45.7836Z" fill="#3E936B"/>
<path id="Vector_86" d="M26.8938 44.5288C26.7598 44.3742 26.4891 44.4211 26.387 44.5808C26.2848 44.7405 26.3644 44.9915 26.5687 45.0358C26.724 45.0688 26.9031 45.0928 27.0013 44.9395C27.0995 44.7861 26.996 44.6454 26.8938 44.5276V44.5288Z" fill="#3E936B"/>
<path id="Vector_87" d="M29.6562 45.1498C29.3033 45.231 29.4108 45.6581 29.7637 45.577C30.1166 45.4958 30.0092 45.0687 29.6562 45.1498Z" fill="#3E936B"/>
<path id="Vector_88" d="M31.6346 42.6252C30.9288 42.7874 31.2339 44.0003 31.9411 43.8381C32.9999 43.5947 32.6948 42.3818 31.6346 42.6252Z" fill="#3E936B"/>
<path id="Vector_89" d="M33.6194 40.1258C33.2664 40.2069 33.4429 40.9078 33.7959 40.8267C34.5017 40.6645 34.3253 39.9636 33.6194 40.1258Z" fill="#3E936B"/>
</g>
<path id="Vector_90" d="M21.3317 44.6467C20.6272 43.6986 18.885 43.5871 16.9996 43.7024C12.6861 44.8964 8.32215 45.4705 3.99403 43.7772C3.96882 44.7671 4.49027 45.7531 5.85292 46.6644C6.55083 47.1308 7.38541 47.3843 8.21865 47.5795C8.83961 47.7252 9.46455 47.8406 10.0921 47.9293C13.5207 48.4172 17.3034 47.8735 20.789 46.9293C21.6674 46.2601 22.023 45.5072 21.3304 44.6441L21.3317 44.6467Z" fill="#FFEBCD"/>
<path id="Vector_91" d="M33.1881 37.0181C33.0634 37.1359 32.936 37.2513 32.8047 37.3641C29.4226 40.6442 25.0467 42.1815 20.2104 43.1296C19.2843 43.3108 18.3595 43.4604 17.436 43.582C17.2914 43.6238 17.1455 43.6631 16.9995 43.7024C18.8849 43.5871 20.6271 43.6986 21.3316 44.6467C22.0242 45.5098 21.6686 46.2626 20.7903 46.9318C22.0017 46.6035 23.1786 46.2284 24.2904 45.8304C26.7212 44.9597 29.5646 43.8887 31.5256 42.0725C31.8441 41.7772 32.1386 41.4629 32.4053 41.127C33.6831 39.5123 33.8011 38.1207 33.1895 37.0193L33.1881 37.0181Z" fill="#FFE2B6"/>
<path id="Vector_92" d="M31.9809 39.6695C32.3259 39.3501 32.6469 39.0079 32.9349 38.6429C36.1007 34.6416 32.704 31.9091 28.3202 31.283C26.1097 30.9674 23.8474 30.9687 22.3056 31.0092C17.9603 31.1246 13.6454 32.1702 9.77641 34.0599C6.3983 35.7101 -1.62901 40.8026 4.13075 44.6517C4.88837 45.1574 5.79327 45.4324 6.69816 45.6441C7.37219 45.8025 8.0502 45.928 8.73086 46.0243C13.7423 46.7379 19.4569 45.4198 24.1327 43.7442C26.7691 42.8 29.854 41.6378 31.9822 39.6682L31.9809 39.6695Z" fill="#C4DFBA"/>
<path id="Vector_93" d="M31.0827 31.1423C31.3865 32.9928 30.816 34.8242 28.9133 36.2906C23.1575 40.4401 15.994 42.0142 8.78931 42.1473C14.7295 43.0383 20.8966 41.3349 26.5051 39.1055C27.9328 38.5377 29.3777 37.9154 30.4936 36.8939C31.6094 35.8723 32.3551 34.3641 32.046 32.9167C31.896 32.2146 31.555 31.6316 31.0827 31.1436V31.1423Z" fill="#3E936B"/>
<path id="Vector_94" d="M28.9133 36.2906C30.816 34.8242 31.3852 32.9928 31.0827 31.1423C29.923 29.9421 27.9527 29.3249 25.928 29.0207C23.9855 28.7279 21.9979 28.719 20.6432 28.7495C16.8272 28.8331 13.0418 29.752 9.65175 31.43C6.69293 32.8952 -0.335284 37.4237 4.74249 40.8977C5.40988 41.3539 6.20598 41.6049 7.00208 41.7988C7.59517 41.9433 8.19092 42.0586 8.78932 42.1486C15.994 42.0155 23.1575 40.4414 28.9133 36.2919V36.2906Z" fill="#44B180"/>
<path id="Vector_95" d="M11.1112 38.6898C10.0842 38.6581 9.05727 38.6467 8.03428 38.5491C7.06703 38.4579 5.93391 37.9725 4.98258 38.1981C4.86449 38.2259 4.83663 38.3565 4.90828 38.4401C5.49739 39.1258 6.74328 39.2817 7.62164 39.4046C8.82375 39.5732 9.99003 39.6201 11.1882 39.4072C11.618 39.3311 11.5345 38.7025 11.1112 38.6898Z" fill="#C4DFBA"/>
<path id="Vector_96" d="M14.362 38.4236C14.2545 38.3958 14.159 38.3818 14.0502 38.416C13.6733 38.5352 13.802 39.0459 14.1948 38.9876C14.3076 38.9712 14.3859 38.9167 14.4681 38.8457C14.6127 38.7215 14.5504 38.4731 14.362 38.4236Z" fill="#C4DFBA"/>
<path id="Vector_97" d="M18.6251 37.7646C18.5747 37.7696 18.503 37.7202 18.507 37.7709C18.4672 37.3641 17.8807 37.4224 17.9272 37.8279C17.9471 38.0003 18.0678 38.1397 18.2191 38.2259C18.4128 38.3374 18.6158 38.2867 18.787 38.1663C18.9502 38.051 18.8294 37.7443 18.6251 37.7646Z" fill="#C4DFBA"/>
<path id="Vector_98" d="M22.5592 36.1867C22.185 35.5403 21.3106 36.3869 21.0041 36.6886C20.6432 37.0434 21.0771 37.6176 21.5415 37.3856C21.9475 37.1816 22.8816 36.7431 22.5592 36.1867Z" fill="#C4DFBA"/>
<path id="Vector_99" d="M22.9929 30.2792C21.4816 29.4313 19.3481 29.9928 17.7108 30.321C15.9753 30.6683 14.0036 31.2095 12.6927 32.3983C12.2642 32.7874 12.5693 33.4503 13.1306 33.487C14.6498 33.5884 16.2274 33.1791 17.7201 32.9319C19.3693 32.6582 21.5506 32.9674 22.9544 32.0561C23.5966 31.6392 23.7452 30.7 22.9955 30.2792H22.9929Z" fill="#C4DFBA"/>
<path id="Vector_100" d="M10.7901 42.9192C10.4372 43.0003 10.6309 43.7696 10.9839 43.6885C11.3368 43.6074 11.1431 42.8381 10.7901 42.9192Z" fill="#3E936B"/>
<path id="Vector_101" d="M12.6703 44.4515C11.9645 44.6137 12.1661 45.4173 12.8733 45.255C13.2263 45.1739 13.0246 44.3704 12.6703 44.4515Z" fill="#3E936B"/>
<path id="Vector_102" d="M14.297 43.4933C13.9441 43.5744 14.0038 43.8139 14.3567 43.7328L14.297 43.4933Z" fill="#3E936B"/>
<path id="Vector_103" d="M16.2155 44.7303C16.177 44.7633 16.1385 44.795 16.1014 44.8279C15.8957 45.0028 16.3057 45.2424 16.3747 44.9876C16.388 44.9407 16.3999 44.8926 16.4132 44.8457C16.4437 44.7341 16.3057 44.653 16.2155 44.7303Z" fill="#3E936B"/>
<path id="Vector_104" d="M18.9355 43.307C18.9116 43.2956 18.8891 43.2842 18.8652 43.2728C18.6715 43.1777 18.4247 43.321 18.4804 43.5402C18.5361 43.7595 18.8241 43.7798 18.9501 43.6112C18.966 43.5909 18.9806 43.5706 18.9966 43.5491C19.0523 43.4756 19.0204 43.3488 18.9355 43.307Z" fill="#3E936B"/>
<path id="Vector_105" d="M20.5449 42.4528C20.5184 42.416 20.4918 42.3805 20.4666 42.3438C20.3445 42.1752 20.0818 42.1384 19.9584 42.3336C19.835 42.5288 19.9863 42.7341 20.1999 42.762C20.2464 42.7683 20.2915 42.7734 20.3379 42.7798C20.5051 42.8013 20.6417 42.5858 20.5462 42.454L20.5449 42.4528Z" fill="#3E936B"/>
<path id="Vector_106" d="M22.1729 42.9509C21.946 43.0028 21.8876 43.2588 22.0296 43.4185C22.0402 43.4299 22.0508 43.4426 22.0614 43.454C22.1888 43.5972 22.4687 43.5326 22.5139 43.3501C22.5178 43.3349 22.5218 43.3197 22.5245 43.3045C22.5749 43.1004 22.4011 42.8976 22.1742 42.9496L22.1729 42.9509Z" fill="#3E936B"/>
<path id="Vector_107" d="M24.6037 41.4097C24.2508 41.4908 24.3848 42.0206 24.7378 41.9394C25.0907 41.8583 24.9567 41.3285 24.6037 41.4097Z" fill="#3E936B"/>
<path id="Vector_108" d="M25.7913 40.155C25.6573 40.0003 25.3866 40.0472 25.2844 40.2082C25.1822 40.3679 25.2619 40.6188 25.4662 40.6632C25.6214 40.6962 25.8006 40.7202 25.8987 40.5669C25.9969 40.4135 25.8934 40.2728 25.7913 40.155Z" fill="#3E936B"/>
<path id="Vector_109" d="M28.5537 40.7747C28.2007 40.8558 28.3082 41.283 28.6612 41.2018C29.0141 41.1207 28.9066 40.6936 28.5537 40.7747Z" fill="#3E936B"/>
<path id="Vector_110" d="M30.5321 38.2513C29.8262 38.4135 30.1314 39.6264 30.8386 39.4642C31.8974 39.2208 31.5922 38.0079 30.5321 38.2513Z" fill="#3E936B"/>
<path id="Vector_111" d="M32.5168 35.7519C32.1639 35.833 32.3404 36.5339 32.6933 36.4528C33.3992 36.2906 33.2227 35.5897 32.5168 35.7519Z" fill="#3E936B"/>
</g>
</g>
</g>
<defs>
<linearGradient id="paint0_linear_556_4293" x1="18.3238" y1="29.8052" x2="34.0361" y2="29.8052" gradientUnits="userSpaceOnUse">
<stop stop-color="#EBE32D"/>
<stop offset="0.34" stop-color="#F0D621"/>
<stop offset="0.95" stop-color="#FDB602"/>
<stop offset="1" stop-color="#FFB300"/>
</linearGradient>
<linearGradient id="paint1_linear_556_4293" x1="18.3199" y1="15.8649" x2="45.224" y2="15.8649" gradientUnits="userSpaceOnUse">
<stop stop-color="#EBE32D"/>
<stop offset="0.34" stop-color="#F0D621"/>
<stop offset="0.95" stop-color="#FDB602"/>
<stop offset="1" stop-color="#FFB300"/>
</linearGradient>
<linearGradient id="paint2_linear_556_4293" x1="33.1662" y1="44.7459" x2="48.9506" y2="48.8108" gradientUnits="userSpaceOnUse">
<stop stop-color="#8E24AA"/>
<stop offset="0.33" stop-color="#86269D"/>
<stop offset="0.92" stop-color="#732C7D"/>
<stop offset="1" stop-color="#702E78"/>
</linearGradient>
<linearGradient id="paint3_linear_556_4293" x1="36.7885" y1="30.6643" x2="63.8159" y2="37.6245" gradientUnits="userSpaceOnUse">
<stop stop-color="#8E24AA"/>
<stop offset="0.33" stop-color="#86269D"/>
<stop offset="0.92" stop-color="#732C7D"/>
<stop offset="1" stop-color="#702E78"/>
</linearGradient>
</defs>
</svg>
