<svg width="35" height="36" viewBox="0 0 35 36" fill="none" xmlns="http://www.w3.org/2000/svg">
<path d="M0.688965 17.476C0.905446 17.0566 1.2535 16.9377 1.71434 16.94C4.72304 16.9539 7.73207 16.9468 10.7411 16.9474C11.6291 16.9474 12.0717 17.6759 11.6696 18.4783C11.4868 18.8426 11.1556 18.9162 10.7865 18.9162C8.64207 18.9145 6.49734 18.9155 4.35295 18.9155C3.49966 18.9155 2.64572 18.8996 1.79276 18.9217C1.32026 18.934 0.936557 18.8248 0.689289 18.3954V17.4763L0.688965 17.476Z" fill="#595959"/>
<path d="M14.6881 7.69412C17.292 7.69412 19.8956 7.69347 22.4995 7.69412C23.7508 7.69444 24.3247 8.24926 24.3519 9.50277C24.3659 10.148 24.3545 10.7936 24.3549 11.4391C24.3552 12.0613 24.3607 12.0649 24.9677 12.0678C25.5364 12.0707 26.1081 12.0432 26.673 12.0912C27.7525 12.1829 28.5665 12.7228 29.0692 13.6859C29.4982 14.5084 29.9182 15.3371 30.2984 16.1829C30.6309 16.9234 31.1876 17.347 31.9489 17.5473C32.2756 17.6331 32.598 17.7385 32.9276 17.8107C33.6623 17.9718 34.0502 18.4563 34.1678 19.1624C34.2466 19.6343 34.2913 20.1162 34.3001 20.5945C34.3192 21.6445 34.3078 22.6949 34.3056 23.7452C34.3033 24.8166 33.5988 25.5269 32.5193 25.5415C31.9943 25.5487 31.4686 25.5315 30.9439 25.548C30.7057 25.5555 30.616 25.4825 30.6056 25.2395C30.5573 24.1127 30.1221 23.1567 29.2532 22.4327C28.142 21.5065 26.8697 21.2628 25.5073 21.7382C24.1309 22.2188 23.2994 23.2147 23.0051 24.6471C22.9678 24.8276 22.9451 25.0149 22.9458 25.199C22.9468 25.4459 22.8596 25.548 22.5981 25.5474C20.1912 25.5402 17.7843 25.538 15.3774 25.5496C15.0582 25.5512 15.029 25.3892 15.0138 25.1462C14.9194 23.6525 14.1854 22.5617 12.8606 21.8999C10.4375 20.6895 7.53121 22.3964 7.37501 25.0998C7.35167 25.5023 7.31149 25.5425 6.90251 25.5425C6.61829 25.5425 6.33116 25.5587 6.05019 25.5263C5.08315 25.4145 4.46352 24.7475 4.447 23.7701C4.42723 22.6109 4.43825 21.4507 4.44408 20.2912C4.44635 19.8475 4.66931 19.6505 5.16838 19.6476C6.12019 19.6418 7.072 19.6456 8.0238 19.6456C8.92084 19.6456 9.81982 19.61 10.7146 19.655C11.7694 19.7079 12.6308 19.0733 12.4947 17.6626C12.4066 16.7481 11.8339 16.2176 10.9119 16.2134C9.11788 16.2049 7.32348 16.2108 5.52908 16.2105C5.40885 16.2105 5.28829 16.2124 5.16806 16.2101C4.50565 16.1975 4.18126 15.6391 4.5063 15.0474C4.56042 14.9488 4.69783 14.8743 4.81255 14.837C4.93278 14.7981 5.07181 14.8124 5.20241 14.8124C7.98135 14.8114 10.7603 14.8085 13.5392 14.8143C14.0649 14.8156 14.5458 14.723 14.89 14.2903C15.3929 13.6584 15.3877 12.9393 15.1064 12.2431C14.8446 11.5953 14.271 11.3662 13.5894 11.3672C10.7557 11.3711 7.92237 11.3691 5.08866 11.3685C4.59186 11.3685 4.4444 11.2246 4.44246 10.7307C4.44084 10.2712 4.41913 9.80967 4.45445 9.35273C4.5157 8.55972 4.98301 8.03083 5.80876 7.83347C6.18695 7.74305 6.58556 7.70157 6.9751 7.69995C9.54598 7.68861 12.1172 7.69412 14.6881 7.69412ZM29.5507 17.5171C29.5569 17.4549 29.5676 17.4296 29.5595 17.4137C29.0889 16.4794 28.6395 15.5331 28.1384 14.6157C27.6701 13.7582 26.9144 13.3055 25.9321 13.264C25.5287 13.2468 25.1229 13.276 24.7198 13.2556C24.4249 13.2403 24.3474 13.3589 24.3503 13.6373C24.362 14.8062 24.3626 15.9752 24.3503 17.1441C24.3471 17.452 24.4433 17.568 24.7632 17.5654C26.2488 17.5525 27.7346 17.5605 29.2205 17.5576C29.3336 17.5576 29.4467 17.5307 29.5511 17.5174L29.5507 17.5171Z" fill="#595959"/>
<path d="M8.56433 14.0755C6.9135 14.0755 5.26267 14.0771 3.61183 14.0748C2.74493 14.0738 2.30063 13.2957 2.72063 12.5206C2.90762 12.1754 3.22683 12.1009 3.58105 12.1006C5.63632 12.0999 7.6916 12.1006 9.74688 12.1006C11.004 12.1006 12.2614 12.0993 13.5185 12.1009C14.3941 12.1019 14.8546 12.9111 14.4197 13.6814C14.2499 13.9821 13.9767 14.0777 13.6478 14.0764C12.7293 14.0729 11.8112 14.0755 10.8928 14.0755C10.1166 14.0755 9.34049 14.0755 8.56433 14.0755Z" fill="#595959"/>
<path d="M11.1883 22.4C12.8243 22.3974 14.1494 23.7189 14.1484 25.3519C14.1475 26.9775 12.8077 28.3137 11.1851 28.3072C9.57315 28.3007 8.24833 26.9768 8.24088 25.3649C8.2331 23.7322 9.55467 22.4029 11.1883 22.4ZM11.1861 24.0874C10.4695 24.0913 9.92833 24.6406 9.93222 25.3591C9.93611 26.074 10.4854 26.6152 11.2036 26.6123C11.9175 26.6093 12.4603 26.0591 12.4574 25.3416C12.4545 24.625 11.9055 24.0832 11.1864 24.0874H11.1861Z" fill="#595959"/>
<path d="M29.7205 25.3354C29.7315 26.9639 28.4038 28.3036 26.7753 28.3072C25.1604 28.3107 23.8051 26.9597 23.8068 25.3484C23.8084 23.739 25.1322 22.4116 26.7468 22.4006C28.3879 22.3893 29.7095 23.694 29.7205 25.3357V25.3354ZM26.7717 26.6126C27.4811 26.6126 28.0444 26.0523 28.0434 25.3477C28.0424 24.6438 27.4769 24.0855 26.7665 24.0871C26.0526 24.0887 25.502 24.6403 25.503 25.3523C25.5043 26.0626 26.0581 26.6129 26.7717 26.6126Z" fill="#595959"/>
</svg>
