<svg width="24" height="24" viewBox="0 0 24 24" fill="none" xmlns="http://www.w3.org/2000/svg">
<g id="Estrella">
<path id="Vector" d="M21.9844 10.7229L17.7563 14.4129L19.0229 19.9067C19.0899 20.1939 19.0708 20.4945 18.9679 20.7709C18.865 21.0472 18.6829 21.2872 18.4444 21.4606C18.2059 21.6341 17.9216 21.7334 17.627 21.7462C17.3323 21.7589 17.0405 21.6845 16.7879 21.5323L11.9963 18.6261L7.21507 21.5323C6.96248 21.6845 6.67062 21.7589 6.37598 21.7462C6.08134 21.7334 5.797 21.6341 5.5585 21.4606C5.32 21.2872 5.13793 21.0472 5.03505 20.7709C4.93217 20.4945 4.91305 20.1939 4.98007 19.9067L6.24476 14.4186L2.01569 10.7229C1.79202 10.53 1.63027 10.2754 1.55075 9.99089C1.47122 9.70642 1.47746 9.4048 1.56867 9.12385C1.65988 8.84291 1.83201 8.59515 2.06347 8.41164C2.29493 8.22813 2.57542 8.11705 2.86976 8.09231L8.44413 7.6095L10.6201 2.4195C10.7337 2.14717 10.9254 1.91455 11.1709 1.75093C11.4165 1.58731 11.705 1.5 12.0001 1.5C12.2952 1.5 12.5836 1.58731 12.8292 1.75093C13.0748 1.91455 13.2664 2.14717 13.3801 2.4195L15.5626 7.6095L21.1351 8.09231C21.4294 8.11705 21.7099 8.22813 21.9414 8.41164C22.1728 8.59515 22.3449 8.84291 22.4362 9.12385C22.5274 9.4048 22.5336 9.70642 22.4541 9.99089C22.3746 10.2754 22.2128 10.53 21.9891 10.7229H21.9844Z" fill="#CB55E9"/>
</g>
</svg>
