<svg width="21" height="20" viewBox="0 0 21 20" fill="none" xmlns="http://www.w3.org/2000/svg">
<g id="Estrella">
<path id="Vector" d="M18.8203 8.93596L15.2969 12.011L16.3524 16.5891C16.4082 16.8284 16.3923 17.0789 16.3065 17.3092C16.2208 17.5396 16.0691 17.7395 15.8703 17.8841C15.6716 18.0286 15.4346 18.1114 15.1891 18.122C14.9436 18.1326 14.7004 18.0706 14.4899 17.9438L10.4969 15.5219L6.51252 17.9438C6.30202 18.0706 6.05881 18.1326 5.81328 18.122C5.56775 18.1114 5.33079 18.0286 5.13204 17.8841C4.9333 17.7395 4.78157 17.5396 4.69584 17.3092C4.6101 17.0789 4.59416 16.8284 4.65002 16.5891L5.70392 12.0157L2.1797 8.93596C1.99331 8.7752 1.85852 8.56298 1.79225 8.32592C1.72598 8.08886 1.73117 7.83751 1.80718 7.60339C1.88319 7.36927 2.02663 7.16281 2.21952 7.00988C2.4124 6.85696 2.64614 6.76439 2.89142 6.74378L7.53674 6.34143L9.35002 2.01643C9.44471 1.78949 9.60443 1.59564 9.80907 1.45929C10.0137 1.32294 10.2541 1.25018 10.5 1.25018C10.7459 1.25018 10.9863 1.32294 11.191 1.45929C11.3956 1.59564 11.5553 1.78949 11.65 2.01643L13.4688 6.34143L18.1125 6.74378C18.3578 6.76439 18.5915 6.85696 18.7844 7.00988C18.9773 7.16281 19.1207 7.36927 19.1968 7.60339C19.2728 7.83751 19.278 8.08886 19.2117 8.32592C19.1454 8.56298 19.0106 8.7752 18.8242 8.93596H18.8203Z" fill="black"/>
</g>
</svg>
