<svg width="24" height="24" viewBox="0 0 24 24" fill="none" xmlns="http://www.w3.org/2000/svg">
<g id="Atomo/flecha">
<path id="Vector" d="M7.38 21.01C7.49611 21.1264 7.63405 21.2187 7.78591 21.2817C7.93778 21.3448 8.10058 21.3772 8.265 21.3772C8.42942 21.3772 8.59222 21.3448 8.74408 21.2817C8.89594 21.2187 9.03388 21.1264 9.15 21.01L17.46 12.7C17.5527 12.6074 17.6262 12.4976 17.6764 12.3766C17.7266 12.2556 17.7524 12.1259 17.7524 11.995C17.7524 11.864 17.7266 11.7343 17.6764 11.6133C17.6262 11.4924 17.5527 11.3825 17.46 11.29L9.15 2.97996C8.66 2.48996 7.87 2.48996 7.38 2.97996C6.89 3.46996 6.89 4.25996 7.38 4.74996L14.62 12L7.37 19.25C6.89 19.73 6.89 20.53 7.38 21.01Z" fill="#151515"/>
</g>
</svg>
