<svg width="33" height="32" viewBox="0 0 33 32" fill="none" xmlns="http://www.w3.org/2000/svg">
<g id="Atomo/hoja">
<path id="Vector" d="M28.9275 4.98255C28.9061 4.61558 28.7506 4.26926 28.4907 4.00933C28.2308 3.74941 27.8845 3.59398 27.5175 3.57255C22.5675 3.2813 18.1938 3.86505 14.5175 5.3063C11 6.68505 8.28876 8.82255 6.67376 11.4875C4.47126 15.1263 4.46626 19.5438 6.61751 23.7613L4.43876 25.94C4.29923 26.0796 4.18855 26.2452 4.11304 26.4275C4.03752 26.6098 3.99866 26.8052 3.99866 27.0025C3.99866 27.1999 4.03752 27.3953 4.11304 27.5776C4.18855 27.7599 4.29923 27.9255 4.43876 28.065C4.72055 28.3468 5.10274 28.5051 5.50126 28.5051C5.69858 28.5051 5.89398 28.4663 6.07628 28.3908C6.25858 28.3153 6.42423 28.2046 6.56376 28.065L8.74251 25.8863C10.835 26.9538 12.9775 27.4925 15.0488 27.4925C17.1532 27.4991 19.2184 26.9237 21.0163 25.83C23.6813 24.215 25.8188 21.5025 27.1975 17.9863C28.635 14.3075 29.2188 9.93255 28.9275 4.98255ZM19.4575 23.26C16.9463 24.7813 14 24.8963 10.9925 23.625L21.56 13.0575C21.6995 12.918 21.8102 12.7524 21.8857 12.5701C21.9612 12.3878 22.0001 12.1924 22.0001 11.995C22.0001 11.7977 21.9612 11.6023 21.8857 11.42C21.8102 11.2377 21.6995 11.0721 21.56 10.9325C21.4205 10.793 21.2548 10.6823 21.0725 10.6068C20.8902 10.5313 20.6948 10.4924 20.4975 10.4924C20.3002 10.4924 20.1048 10.5313 19.9225 10.6068C19.7402 10.6823 19.5745 10.793 19.435 10.9325L8.87501 21.5075C7.60751 18.5075 7.72251 15.5538 9.25001 13.0425C11.8638 8.72629 18.0675 6.32755 26 6.5113C26.1725 14.4413 23.7738 20.6463 19.4575 23.26Z" fill="#822E99"/>
</g>
</svg>
