<svg width="28" height="28" viewBox="0 0 28 28" fill="none" xmlns="http://www.w3.org/2000/svg">
<g clip-path="url(#clip0_370_1344)">
<path d="M20.2173 26.3431H7.7778C7.36532 26.2549 6.94195 26.2005 6.54165 26.0734C4.10228 25.299 2.53558 23.6724 1.85477 21.2038C1.7661 20.8823 1.71995 20.5489 1.65436 20.2212C1.65436 16.0754 1.65436 11.9298 1.65436 7.784C1.74302 7.37022 1.81225 6.95126 1.92321 6.5437C2.6958 3.70481 5.39728 1.66963 8.41143 1.66392C12.1315 1.65692 15.8519 1.64966 19.572 1.67429C20.2057 1.67844 20.8548 1.77878 21.468 1.94263C24.304 2.70044 26.3319 5.40452 26.3384 8.40596C26.3467 12.1333 26.3527 15.861 26.3286 19.5883C26.3244 20.2139 26.2441 20.8634 26.0605 21.4591C25.3081 23.9016 23.6683 25.4621 21.2017 26.1424C20.8797 26.2313 20.5458 26.2772 20.2173 26.3431ZM20.755 13.9992C20.7519 10.2713 17.7375 7.25485 14.0065 7.24629C10.2747 7.23774 7.23725 10.2721 7.2401 14.0057C7.24321 17.7336 10.2576 20.7501 13.9886 20.7586C17.7204 20.7672 20.7579 17.7328 20.7548 13.9992H20.755ZM23.2154 6.84392C23.2247 5.71018 22.316 4.79111 21.1818 4.7867C20.0542 4.78255 19.1238 5.7037 19.1217 6.82604C19.1199 7.938 20.0628 8.88066 21.175 8.87911C22.2878 8.87755 23.2061 7.96159 23.2151 6.84392H23.2154Z" fill="#595959"/>
<path d="M13.9891 19.3122C11.046 19.3006 8.67458 16.9221 8.68651 13.9938C8.69843 11.0509 11.0771 8.68026 14.006 8.69218C16.9494 8.70411 19.3203 11.0823 19.3084 14.0106C19.2964 16.9535 16.9182 19.3236 13.9889 19.312L13.9891 19.3122Z" fill="#595959"/>
<path d="M21.1789 6.23181C21.5077 6.23415 21.7703 6.49937 21.7698 6.82863C21.7693 7.14959 21.4937 7.4327 21.1784 7.43556C20.8644 7.43867 20.5577 7.12885 20.5655 6.81619C20.573 6.49963 20.8567 6.22922 21.1789 6.23156V6.23181Z" fill="#595959"/>
</g>
<defs>
<clipPath id="clip0_370_1344">
<rect width="28" height="28" fill="white"/>
</clipPath>
</defs>
</svg>
