<svg width="160" height="54" viewBox="0 0 160 54" fill="none" xmlns="http://www.w3.org/2000/svg">
<g id="Logo">
<g id="Group">
<path id="Vector" d="M0 34.2417V24.0914C0 18.2702 1.66659 14.4733 7.89448 14.4733C13.3636 14.4733 15.282 17.5618 15.282 22.7436V25.0147H11.4075V22.992C11.4075 19.7977 11.3356 17.5971 7.93045 17.5971C4.52532 17.5971 4.12794 19.9404 4.12794 23.4888V34.8813C4.12794 39.212 5.10597 40.6304 7.93045 40.6304C11.2259 40.6304 11.4075 38.324 11.4075 34.9165V32.7864H15.282V34.9165C15.282 40.204 13.6513 43.7894 7.89448 43.7894C1.66488 43.7894 0 39.6014 0 34.2417Z" fill="#595959"/>
<path id="Vector_2" d="M18.5056 36.1939V30.2316C18.5056 25.6173 19.9547 22.6714 24.6256 22.6714C29.2965 22.6714 30.7096 25.6173 30.7096 30.2316V36.1939C30.7096 40.8083 29.2605 43.7542 24.6256 43.7542C19.9906 43.7542 18.5056 40.8083 18.5056 36.1939ZM26.8352 36.4423V30.0185C26.8352 27.7121 26.8352 25.4763 24.6256 25.4763C22.416 25.4763 22.3801 27.7121 22.3801 30.0185V36.4423C22.3801 38.7487 22.3801 40.9493 24.6256 40.9493C26.8711 40.9493 26.8352 38.7487 26.8352 36.4423Z" fill="#595959"/>
<path id="Vector_3" d="M33.8972 36.1939V30.2316C33.8972 25.6173 35.3463 22.6714 40.0172 22.6714C44.6881 22.6714 46.1012 25.6173 46.1012 30.2316V36.1939C46.1012 40.8083 44.6521 43.7542 40.0172 43.7542C35.3823 43.7542 33.8972 40.8083 33.8972 36.1939ZM42.2268 36.4423V30.0185C42.2268 27.7121 42.2268 25.4763 40.0172 25.4763C37.8076 25.4763 37.7717 27.7121 37.7717 30.0185V36.4423C37.7717 38.7487 37.7717 40.9493 40.0172 40.9493C42.2627 40.9493 42.2268 38.7487 42.2268 36.4423Z" fill="#595959"/>
<path id="Vector_4" d="M49.7239 14.6865H53.5983V31.8297L59.2473 22.9568H63.3033L58.3771 30.9787L63.1577 43.4723H59.2832L55.3711 32.9661L53.5966 35.5931V43.437H49.7222V14.6882L49.7239 14.6865Z" fill="#595959"/>
</g>
<path id="Vector_5" d="M82.6349 43.2193H70.769V37.6563L81.4218 13.7646H87.7834V38.5021H92.3779V43.2217H87.7834V53.9999H82.6325V43.2217L82.6349 43.2193ZM82.6349 38.4997V20.2203L75.9701 38.4997H82.6349Z" fill="#595959"/>
<g id="Group_2">
<path id="Vector_6" d="M99.9425 35.5343L103.289 34.6484C103.49 37.5032 104.227 40.3565 107.14 40.3565C109.081 40.3565 110.119 39.2735 110.119 37.2395C110.119 34.8439 108.881 33.598 107.173 32.1225L102.62 28.1863C100.812 26.6441 100.009 24.9716 100.009 22.3138C100.009 18.4102 102.453 16.1791 106.369 16.1791C110.688 16.1791 112.763 18.3776 113.197 23.0353L109.983 23.8886C109.782 21.2634 109.18 19.0339 106.367 19.0339C104.493 19.0339 103.388 20.0176 103.388 21.9539C103.388 23.5612 103.889 24.4797 105.162 25.5627L109.749 29.4989C111.791 31.2708 113.632 33.6322 113.632 36.9462C113.632 40.8825 110.92 43.278 107.138 43.278C102.419 43.278 100.208 40.1284 99.9409 35.5359L99.9425 35.5343Z" fill="#595959"/>
<path id="Vector_7" d="M115.942 36.2558V30.7448C115.942 26.4796 117.282 23.7567 121.599 23.7567C125.917 23.7567 127.223 26.4796 127.223 30.7448V36.2558C127.223 40.5209 125.883 43.2439 121.599 43.2439C117.315 43.2439 115.942 40.5209 115.942 36.2558ZM123.642 36.4854V30.5477C123.642 28.4159 123.642 26.3493 121.599 26.3493C119.557 26.3493 119.524 28.4159 119.524 30.5477V36.4854C119.524 38.6172 119.524 40.6513 121.599 40.6513C123.675 40.6513 123.642 38.6172 123.642 36.4854Z" fill="#595959"/>
<path id="Vector_8" d="M130.37 39.3728V24.0189H133.951V38.3224C133.951 39.6676 134.252 40.4883 135.492 40.4883C136.296 40.4883 137.198 39.9639 138.003 39.3076V24.0205H141.584V42.9816H138.003V41.1121C136.731 42.2928 135.158 43.2439 133.283 43.2439C130.973 43.2439 130.372 41.2098 130.372 39.3728H130.37Z" fill="#595959"/>
<path id="Vector_9" d="M145.567 16.4087H149.149V42.9816H145.567V16.4087Z" fill="#595959"/>
</g>
<g id="Group_3">
<path id="Vector_10" d="M56.5481 14.0359C56.334 14.2676 55.9417 14.2558 55.7739 13.9906C55.6711 13.8261 55.7396 13.6683 55.9263 13.3376C56.8547 11.691 57.3925 9.91673 57.5672 8.0552C57.7316 6.31285 57.8036 4.5621 57.8944 2.81304C57.9183 2.34472 58.1153 2.00732 58.4921 1.74547C58.8056 1.52725 59.1447 1.52558 59.3674 1.80758C59.626 2.13322 59.8573 2.50922 59.9823 2.89865C60.3163 3.93936 60.1673 5.00525 59.9823 6.05099C59.4959 8.81223 58.5658 11.4056 56.8461 13.6834C56.7536 13.806 56.6508 13.9218 56.5446 14.0359H56.5481Z" fill="#595959"/>
<path id="Vector_11" d="M67.7567 17.3443C67.5819 17.3729 67.4055 17.3846 67.2291 17.3762C65.8537 17.3124 64.7472 17.2453 63.6407 17.2251C62.1916 17.2 60.7409 17.2218 59.2918 17.2218C59.1839 17.2218 59.0965 17.2369 58.9715 17.2134C58.8944 17.2 58.8396 17.1278 58.7779 17.0791C58.5844 16.928 58.6049 16.6158 58.8293 16.5134C58.8293 16.5134 58.8328 16.5134 58.8328 16.5118C61.2581 15.4492 63.7829 14.7761 66.46 14.9574C67.4329 15.0229 68.3973 15.2847 69.3496 15.5214C69.7607 15.6238 70.2454 15.8722 70.2283 16.3489C70.2111 16.8223 69.6956 16.9566 69.2965 17.0523C68.7364 17.1849 68.1643 17.2755 67.7584 17.3443H67.7567Z" fill="#595959"/>
<path id="Vector_12" d="M52.6032 10.1768C52.6032 8.80207 52.7351 7.51125 53.3466 6.32451C53.5436 5.94179 53.8142 5.57419 54.1259 5.2754C54.5576 4.8608 55.0132 4.98502 55.2427 5.53726C55.5065 6.17176 55.539 6.85661 55.3815 7.49447C55.0303 8.91789 54.5884 10.3195 54.179 11.7278C54.0711 12.0971 53.9752 12.4714 53.8211 12.8222C53.8022 12.8642 53.7765 12.9028 53.744 12.9397C53.559 13.1546 53.1873 13.1042 53.0897 12.839C53.0897 12.839 53.0897 12.8357 53.0897 12.834C52.7779 11.9544 52.5347 11.0581 52.6049 10.1768H52.6032Z" fill="#595959"/>
<path id="Vector_13" d="M63.9953 11.3015C63.9593 12.0988 63.4986 12.6628 62.846 13.0304C62.0273 13.492 61.152 13.858 60.299 14.2591C59.5179 14.6267 58.7369 14.9927 57.9473 15.3401C57.8993 15.362 57.8428 15.362 57.7811 15.3552C57.6184 15.3368 57.4934 15.1857 57.5379 15.0313C57.5448 15.0078 57.555 14.9876 57.5687 14.9725C58.9613 13.3964 60.4857 11.9662 62.3852 10.9809C62.6867 10.8248 63.043 10.7358 63.3838 10.7006C63.8052 10.6569 64.0005 10.8869 63.9953 11.3032V11.3015Z" fill="#595959"/>
<path id="Vector_14" d="M60.4293 19.2294C60.7462 19.1724 61.0699 19.1741 61.3851 19.2345C61.8989 19.3335 62.4213 19.4326 62.9318 19.5769C62.978 19.5903 63.0226 19.6122 63.0637 19.6424C63.372 19.8572 63.396 20.3155 63.0876 20.5303C63.0482 20.5572 63.0089 20.5757 62.966 20.5841C62.4042 20.6764 61.815 20.7418 61.2566 20.673C60.58 20.5891 59.9189 20.3642 59.2595 20.1762C59.1156 20.1342 58.8912 19.9714 58.9015 19.8891C58.922 19.7397 59.0659 19.5215 59.2012 19.4863C59.5969 19.3822 60.0028 19.31 60.4293 19.2328V19.2294Z" fill="#595959"/>
</g>
<g id="Group_4">
<path id="Vector_15" d="M148.761 10.2997C148.687 10.5511 148.388 10.6861 148.161 10.5464C148.022 10.4595 148.012 10.3152 148.028 9.99873C148.106 8.41928 147.841 6.88637 147.271 5.41863C146.738 4.04398 146.13 2.69726 145.538 1.34588C145.379 0.982822 145.4 0.658549 145.585 0.32342C145.739 0.0456967 145.994 -0.0784253 146.269 0.0519028C146.587 0.203952 146.904 0.402556 147.145 0.652352C147.789 1.3164 148.08 2.17439 148.337 3.03083C149.013 5.28985 149.292 7.58456 148.855 9.92581C148.831 10.053 148.798 10.1772 148.761 10.3013V10.2997Z" fill="#595959"/>
<path id="Vector_16" d="M158.468 8.72959C158.347 8.81492 158.218 8.88628 158.081 8.94524C157.019 9.39673 156.159 9.74583 155.317 10.1337C154.214 10.6411 153.128 11.1825 152.035 11.7101C151.953 11.7488 151.894 11.7923 151.79 11.8202C151.726 11.8373 151.658 11.8047 151.593 11.7892C151.389 11.7457 151.286 11.5022 151.418 11.3439C151.418 11.3439 151.419 11.3423 151.421 11.3408C152.851 9.65894 154.499 8.2362 156.588 7.40148C157.347 7.09893 158.173 6.94533 158.981 6.77932C159.329 6.70795 159.788 6.7188 159.956 7.08496C160.122 7.44802 159.783 7.73661 159.517 7.95382C159.145 8.25792 158.748 8.53409 158.468 8.73113V8.72959Z" fill="#595959"/>
<path id="Vector_17" d="M144.327 8.81959C143.809 7.78162 143.42 6.76227 143.432 5.64362C143.437 5.28367 143.502 4.9082 143.624 4.56997C143.793 4.10141 144.184 4.02849 144.566 4.36206C145.004 4.74529 145.288 5.24954 145.411 5.78792C145.684 6.9888 145.88 8.20675 146.103 9.41849C146.162 9.735 146.231 10.0531 146.246 10.3742C146.247 10.413 146.242 10.4518 146.233 10.4906C146.174 10.7202 145.875 10.8164 145.701 10.6519C145.701 10.6519 145.699 10.6504 145.698 10.6488C145.129 10.0981 144.609 9.51002 144.328 8.81959H144.327Z" fill="#595959"/>
<path id="Vector_18" d="M153.346 5.53651C153.62 6.15092 153.486 6.74359 153.132 7.25715C152.689 7.90258 152.167 8.49527 151.674 9.10813C151.225 9.66823 150.773 10.2283 150.308 10.776C150.28 10.8086 150.237 10.8303 150.189 10.8474C150.059 10.8924 149.909 10.8241 149.884 10.6907C149.881 10.6705 149.881 10.6519 149.884 10.6348C150.338 8.94056 150.948 7.30835 152.008 5.8763C152.176 5.64977 152.412 5.45273 152.656 5.30223C152.958 5.11605 153.191 5.21845 153.345 5.53496L153.346 5.53651Z" fill="#595959"/>
<path id="Vector_19" d="M153.652 12.8117C153.869 12.6535 154.114 12.5371 154.375 12.4688C154.8 12.3571 155.232 12.2407 155.672 12.1663C155.712 12.1601 155.754 12.1601 155.796 12.1663C156.109 12.2175 156.301 12.5542 156.15 12.8272C156.131 12.8614 156.107 12.8908 156.079 12.911C155.691 13.1841 155.27 13.4478 154.822 13.5983C154.279 13.7799 153.696 13.8512 153.126 13.9474C153.003 13.9691 152.77 13.9257 152.748 13.8605C152.707 13.7411 152.734 13.5239 152.821 13.4478C153.08 13.226 153.359 13.0243 153.652 12.8102V12.8117Z" fill="#595959"/>
</g>
</g>
</svg>
