<svg width="179" height="60" viewBox="0 0 179 60" fill="none" xmlns="http://www.w3.org/2000/svg">
<g id="Logo">
<g id="Group">
<path id="Vector" d="M0 38.046V26.7679C0 20.2998 1.8645 16.0811 8.83195 16.0811C14.9505 16.0811 17.0967 19.5128 17.0967 25.2703V27.7937H12.7622V25.5463C12.7622 21.9971 12.6817 19.552 8.87219 19.552C5.0627 19.552 4.61814 22.1556 4.61814 26.0984V38.7566C4.61814 43.5685 5.71231 45.1445 8.87219 45.1445C12.559 45.1445 12.7622 42.5819 12.7622 38.7958V36.429H17.0967V38.7958C17.0967 44.6708 15.2724 48.6545 8.83195 48.6545C1.86258 48.6545 0 44.0012 0 38.046Z" fill="#CB55E9"/>
<path id="Vector_2" d="M20.7031 40.2155V33.5907C20.7031 28.4636 22.3243 25.1904 27.5498 25.1904C32.7754 25.1904 34.3563 28.4636 34.3563 33.5907V40.2155C34.3563 45.3425 32.7352 48.6158 27.5498 48.6158C22.3645 48.6158 20.7031 45.3425 20.7031 40.2155ZM30.0218 40.4915V33.3539C30.0218 30.7912 30.0218 28.307 27.5498 28.307C25.0779 28.307 25.0377 30.7912 25.0377 33.3539V40.4915C25.0377 43.0541 25.0377 45.4992 27.5498 45.4992C30.062 45.4992 30.0218 43.0541 30.0218 40.4915Z" fill="#CB55E9"/>
<path id="Vector_3" d="M37.9224 40.2155V33.5907C37.9224 28.4636 39.5435 25.1904 44.7691 25.1904C49.9947 25.1904 51.5756 28.4636 51.5756 33.5907V40.2155C51.5756 45.3425 49.9544 48.6158 44.7691 48.6158C39.5837 48.6158 37.9224 45.3425 37.9224 40.2155ZM47.241 40.4915V33.3539C47.241 30.7912 47.241 28.307 44.7691 28.307C42.2971 28.307 42.2569 30.7912 42.2569 33.3539V40.4915C42.2569 43.0541 42.2569 45.4992 44.7691 45.4992C47.2813 45.4992 47.241 43.0541 47.241 40.4915Z" fill="#CB55E9"/>
<path id="Vector_4" d="M55.6284 16.3184H59.9629V35.3664L66.2827 25.5076H70.8203L65.3092 34.4208L70.6574 48.3025H66.3229L61.9462 36.629L59.961 39.5478V48.2633H55.6265V16.3202L55.6284 16.3184Z" fill="#CB55E9"/>
</g>
<path id="Vector_5" d="M92.4478 48.0214H79.1729V41.8403L91.0907 15.2939H98.2077V42.78H103.348V48.024H98.2077V59.9998H92.4451V48.024L92.4478 48.0214ZM92.4478 42.7774V22.4669L84.9915 42.7774H92.4478Z" fill="#CB55E9"/>
<g id="Group_2">
<path id="Vector_6" d="M111.811 39.4824L115.555 38.4981C115.78 41.6701 116.604 44.8403 119.863 44.8403C122.034 44.8403 123.196 43.6371 123.196 41.377C123.196 38.7153 121.811 37.331 119.9 35.6915L114.806 31.318C112.783 29.6044 111.885 27.746 111.885 24.7929C111.885 20.4556 114.62 17.9766 119 17.9766C123.832 17.9766 126.154 20.4194 126.639 25.5945L123.044 26.5427C122.819 23.6258 122.146 21.1486 118.998 21.1486C116.901 21.1486 115.665 22.2415 115.665 24.393C115.665 26.179 116.226 27.1995 117.651 28.4028L122.782 32.7764C125.067 34.7451 127.127 37.3689 127.127 41.0512C127.127 45.4248 124.092 48.0865 119.861 48.0865C114.581 48.0865 112.108 44.5869 111.809 39.4841L111.811 39.4824Z" fill="#CB55E9"/>
<path id="Vector_7" d="M129.711 40.2844V34.161C129.711 29.422 131.209 26.3965 136.039 26.3965C140.87 26.3965 142.331 29.422 142.331 34.161V40.2844C142.331 45.0234 140.832 48.0489 136.039 48.0489C131.247 48.0489 129.711 45.0234 129.711 40.2844ZM138.324 40.5395V33.9421C138.324 31.5734 138.324 29.2771 136.039 29.2771C133.755 29.2771 133.717 31.5734 133.717 33.9421V40.5395C133.717 42.9081 133.717 45.1682 136.039 45.1682C138.362 45.1682 138.324 42.9081 138.324 40.5395Z" fill="#CB55E9"/>
<path id="Vector_8" d="M145.852 43.7474V26.6875H149.859V42.5803C149.859 44.0749 150.195 44.9869 151.582 44.9869C152.482 44.9869 153.491 44.4042 154.391 43.675V26.6892H158.398V47.7572H154.391V45.6799C152.969 46.9918 151.208 48.0485 149.111 48.0485C146.527 48.0485 145.854 45.7885 145.854 43.7474H145.852Z" fill="#CB55E9"/>
<path id="Vector_9" d="M162.854 18.2314H166.86V47.7569H162.854V18.2314Z" fill="#CB55E9"/>
</g>
<g id="Group_3">
<path id="Vector_10" d="M63.2634 15.5954C63.0238 15.8528 62.585 15.8397 62.3972 15.545C62.2822 15.3623 62.3589 15.1869 62.5678 14.8195C63.6064 12.9899 64.2081 11.0185 64.4035 8.95014C64.5875 7.0142 64.668 5.06892 64.7695 3.12552C64.7964 2.60516 65.0167 2.23028 65.4383 1.93933C65.789 1.69687 66.1684 1.69501 66.4175 2.00834C66.7068 2.37016 66.9655 2.78794 67.1054 3.22064C67.4791 4.37698 67.3124 5.5613 67.1054 6.72324C66.5612 9.79129 65.5207 12.6728 63.5968 15.2037C63.4933 15.3399 63.3783 15.4686 63.2595 15.5954H63.2634Z" fill="#ECE42D"/>
<path id="Vector_11" d="M75.8032 19.2717C75.6077 19.3035 75.4103 19.3165 75.213 19.3072C73.6742 19.2363 72.4363 19.1617 71.1984 19.1393C69.5773 19.1113 67.9543 19.1356 66.3331 19.1356C66.2124 19.1356 66.1147 19.1524 65.9748 19.1263C65.8885 19.1114 65.8272 19.0311 65.7582 18.9771C65.5417 18.8092 65.5647 18.4623 65.8157 18.3485C65.8157 18.3485 65.8196 18.3485 65.8196 18.3467C68.533 17.1661 71.3575 16.4182 74.3526 16.6196C75.441 16.6924 76.5198 16.9833 77.5853 17.2463C78.0452 17.36 78.5875 17.6361 78.5683 18.1658C78.5491 18.6917 77.9724 18.8409 77.5259 18.9472C76.8993 19.0946 76.2592 19.1953 75.8051 19.2717H75.8032Z" fill="#ECE42D"/>
<path id="Vector_12" d="M58.8501 11.3072C58.8501 9.77973 58.9976 8.34548 59.6817 7.02688C59.9021 6.60164 60.2049 6.19319 60.5536 5.86121C61.0365 5.40053 61.5462 5.53855 61.803 6.15216C62.0981 6.85716 62.1345 7.61811 61.9582 8.32683C61.5654 9.90842 61.071 11.4658 60.613 13.0305C60.4923 13.4409 60.385 13.8568 60.2125 14.2466C60.1914 14.2932 60.1627 14.3361 60.1263 14.3771C59.9193 14.6159 59.5035 14.5599 59.3943 14.2652C59.3943 14.2652 59.3943 14.2615 59.3943 14.2596C59.0455 13.2823 58.7734 12.2864 58.852 11.3072H58.8501Z" fill="#ECE42D"/>
<path id="Vector_13" d="M71.5952 12.5573C71.555 13.4432 71.0395 14.0699 70.3094 14.4784C69.3935 14.9913 68.4143 15.3978 67.46 15.8436C66.5862 16.252 65.7124 16.6586 64.829 17.0447C64.7753 17.069 64.7121 17.069 64.6431 17.0615C64.4611 17.041 64.3212 16.8731 64.371 16.7015C64.3787 16.6754 64.3902 16.653 64.4055 16.6363C65.9634 14.885 67.6689 13.2959 69.794 12.2011C70.1312 12.0277 70.5298 11.9288 70.9111 11.8896C71.3825 11.8411 71.601 12.0967 71.5952 12.5592V12.5573Z" fill="#ECE42D"/>
<path id="Vector_14" d="M67.6052 21.3655C67.9597 21.3021 68.3218 21.304 68.6744 21.3711C69.2493 21.4812 69.8338 21.5912 70.4048 21.7516C70.4565 21.7665 70.5064 21.7908 70.5523 21.8243C70.8973 22.0631 70.9241 22.5722 70.5792 22.811C70.5351 22.8408 70.491 22.8613 70.4431 22.8707C69.8146 22.9732 69.1554 23.046 68.5307 22.9695C67.7738 22.8762 67.0341 22.6263 66.2964 22.4174C66.1354 22.3708 65.8844 22.1899 65.8959 22.0985C65.9189 21.9325 66.0798 21.6901 66.2312 21.6509C66.6739 21.5353 67.128 21.4551 67.6052 21.3693V21.3655Z" fill="#ECE42D"/>
</g>
<g id="Group_4">
<path id="Vector_15" d="M166.426 11.4441C166.343 11.7234 166.008 11.8734 165.755 11.7182C165.599 11.6217 165.589 11.4614 165.606 11.1097C165.693 9.35476 165.397 7.65153 164.76 6.0207C164.163 4.49331 163.483 2.99695 162.82 1.49542C162.643 1.09202 162.666 0.731721 162.873 0.359355C163.045 0.0507741 163.33 -0.0871392 163.638 0.0576697C163.994 0.226614 164.349 0.447284 164.618 0.724835C165.339 1.46267 165.665 2.41599 165.952 3.36759C166.708 5.87761 167.02 8.42729 166.531 11.0287C166.504 11.17 166.467 11.3079 166.426 11.4459V11.4441Z" fill="#ECE42D"/>
<path id="Vector_16" d="M177.286 9.69965C177.151 9.79446 177.006 9.87375 176.854 9.93926C175.665 10.4409 174.703 10.8288 173.761 11.2598C172.527 11.8235 171.312 12.4252 170.089 13.0113C169.997 13.0544 169.932 13.1027 169.815 13.1337C169.744 13.1526 169.668 13.1164 169.595 13.0992C169.367 13.0509 169.252 12.7803 169.399 12.6044C169.399 12.6044 169.4 12.6027 169.402 12.601C171.002 10.7323 172.845 9.15144 175.183 8.22398C176.032 7.88781 176.956 7.71714 177.86 7.53268C178.249 7.45338 178.763 7.46545 178.951 7.87229C179.137 8.27569 178.758 8.59634 178.46 8.83769C178.044 9.17558 177.599 9.48243 177.286 9.70136V9.69965Z" fill="#ECE42D"/>
<path id="Vector_17" d="M161.465 9.79992C160.886 8.64662 160.451 7.51402 160.465 6.27107C160.47 5.87113 160.543 5.45394 160.679 5.07813C160.869 4.5575 161.306 4.47648 161.733 4.84712C162.223 5.27292 162.541 5.8332 162.679 6.4314C162.983 7.76571 163.203 9.11899 163.453 10.4654C163.518 10.817 163.596 11.1704 163.612 11.5273C163.614 11.5704 163.609 11.6135 163.598 11.6566C163.532 11.9117 163.198 12.0186 163.003 11.8359C163.003 11.8359 163.001 11.8342 162.999 11.8324C162.363 11.2204 161.781 10.5671 161.467 9.79992H161.465Z" fill="#ECE42D"/>
<path id="Vector_18" d="M171.556 6.15146C171.862 6.83414 171.712 7.49267 171.317 8.06328C170.821 8.78043 170.236 9.43898 169.686 10.1199C169.183 10.7423 168.678 11.3646 168.157 11.9731C168.125 12.0093 168.077 12.0335 168.024 12.0524C167.879 12.1024 167.711 12.0266 167.682 11.8783C167.679 11.8559 167.679 11.8352 167.682 11.8163C168.191 9.93373 168.873 8.12018 170.059 6.529C170.247 6.27731 170.511 6.05837 170.784 5.89115C171.122 5.68428 171.382 5.79806 171.554 6.14974L171.556 6.15146Z" fill="#ECE42D"/>
<path id="Vector_19" d="M171.898 14.235C172.14 14.0592 172.415 13.9299 172.707 13.854C173.182 13.7299 173.665 13.6006 174.158 13.5179C174.202 13.511 174.25 13.511 174.296 13.5179C174.647 13.5748 174.861 13.9488 174.693 14.2523C174.671 14.2902 174.645 14.3229 174.613 14.3453C174.179 14.6488 173.708 14.9418 173.207 15.109C172.599 15.3107 171.947 15.39 171.31 15.4969C171.172 15.5211 170.911 15.4728 170.886 15.4004C170.84 15.2676 170.87 15.0263 170.968 14.9418C171.258 14.6953 171.57 14.4712 171.898 14.2333V14.235Z" fill="#ECE42D"/>
</g>
</g>
</svg>
