<svg width="179" height="60" viewBox="0 0 179 60" fill="none" xmlns="http://www.w3.org/2000/svg">
<g id="Logo">
<g id="Group">
<path id="Vector" d="M0 38.046V26.7679C0 20.2998 1.8645 16.0811 8.83195 16.0811C14.9505 16.0811 17.0967 19.5128 17.0967 25.2703V27.7937H12.7622V25.5463C12.7622 21.9971 12.6817 19.552 8.87219 19.552C5.0627 19.552 4.61814 22.1556 4.61814 26.0984V38.7566C4.61814 43.5685 5.71231 45.1445 8.87219 45.1445C12.559 45.1445 12.7622 42.5819 12.7622 38.7958V36.429H17.0967V38.7958C17.0967 44.6708 15.2724 48.6545 8.83195 48.6545C1.86258 48.6545 0 44.0012 0 38.046Z" fill="#822E99"/>
<path id="Vector_2" d="M20.7031 40.2155V33.5907C20.7031 28.4636 22.3243 25.1904 27.5498 25.1904C32.7754 25.1904 34.3563 28.4636 34.3563 33.5907V40.2155C34.3563 45.3425 32.7352 48.6158 27.5498 48.6158C22.3645 48.6158 20.7031 45.3425 20.7031 40.2155ZM30.0218 40.4915V33.3539C30.0218 30.7912 30.0218 28.307 27.5498 28.307C25.0779 28.307 25.0377 30.7912 25.0377 33.3539V40.4915C25.0377 43.0541 25.0377 45.4992 27.5498 45.4992C30.062 45.4992 30.0218 43.0541 30.0218 40.4915Z" fill="#822E99"/>
<path id="Vector_3" d="M37.9226 40.2155V33.5907C37.9226 28.4636 39.5437 25.1904 44.7693 25.1904C49.9949 25.1904 51.5758 28.4636 51.5758 33.5907V40.2155C51.5758 45.3425 49.9547 48.6158 44.7693 48.6158C39.584 48.6158 37.9226 45.3425 37.9226 40.2155ZM47.2413 40.4915V33.3539C47.2413 30.7912 47.2413 28.307 44.7693 28.307C42.2974 28.307 42.2571 30.7912 42.2571 33.3539V40.4915C42.2571 43.0541 42.2571 45.4992 44.7693 45.4992C47.2815 45.4992 47.2413 43.0541 47.2413 40.4915Z" fill="#822E99"/>
<path id="Vector_4" d="M55.6285 16.3184H59.963V35.3664L66.2828 25.5076H70.8204L65.3093 34.4208L70.6576 48.3025H66.323L61.9463 36.629L59.9611 39.5478V48.2633H55.6266V16.3202L55.6285 16.3184Z" fill="#822E99"/>
</g>
<path id="Vector_5" d="M92.4478 48.0214H79.1729V41.8403L91.0907 15.2939H98.2077V42.78H103.348V48.024H98.2077V59.9998H92.4451V48.024L92.4478 48.0214ZM92.4478 42.7774V22.4669L84.9915 42.7774H92.4478Z" fill="#822E99"/>
<g id="Group_2">
<path id="Vector_6" d="M111.811 39.4824L115.555 38.4981C115.78 41.6701 116.604 44.8403 119.863 44.8403C122.034 44.8403 123.196 43.6371 123.196 41.377C123.196 38.7153 121.811 37.331 119.9 35.6915L114.806 31.318C112.783 29.6044 111.885 27.746 111.885 24.7929C111.885 20.4556 114.62 17.9766 119 17.9766C123.832 17.9766 126.154 20.4194 126.639 25.5945L123.044 26.5427C122.819 23.6258 122.146 21.1486 118.998 21.1486C116.901 21.1486 115.665 22.2415 115.665 24.393C115.665 26.179 116.226 27.1995 117.65 28.4028L122.782 32.7764C125.066 34.7451 127.126 37.3689 127.126 41.0512C127.126 45.4248 124.092 48.0865 119.861 48.0865C114.581 48.0865 112.108 44.5869 111.809 39.4841L111.811 39.4824Z" fill="#822E99"/>
<path id="Vector_7" d="M129.711 40.2844V34.161C129.711 29.422 131.209 26.3965 136.039 26.3965C140.869 26.3965 142.33 29.422 142.33 34.161V40.2844C142.33 45.0234 140.832 48.0489 136.039 48.0489C131.246 48.0489 129.711 45.0234 129.711 40.2844ZM138.324 40.5395V33.9421C138.324 31.5734 138.324 29.2771 136.039 29.2771C133.754 29.2771 133.717 31.5734 133.717 33.9421V40.5395C133.717 42.9081 133.717 45.1682 136.039 45.1682C138.361 45.1682 138.324 42.9081 138.324 40.5395Z" fill="#822E99"/>
<path id="Vector_8" d="M145.852 43.7474V26.6875H149.858V42.5803C149.858 44.0749 150.195 44.9869 151.582 44.9869C152.481 44.9869 153.491 44.4042 154.391 43.675V26.6892H158.397V47.7572H154.391V45.6799C152.968 46.9918 151.208 48.0485 149.111 48.0485C146.527 48.0485 145.853 45.7885 145.853 43.7474H145.852Z" fill="#822E99"/>
<path id="Vector_9" d="M162.854 18.2314H166.86V47.7569H162.854V18.2314Z" fill="#822E99"/>
</g>
<g id="Group_3">
<path id="Vector_10" d="M63.2631 15.5954C63.0236 15.8528 62.5848 15.8397 62.397 15.545C62.282 15.3623 62.3586 15.1869 62.5675 14.8195C63.6061 12.9899 64.2078 11.0185 64.4033 8.95014C64.5872 7.0142 64.6677 5.06892 64.7693 3.12552C64.7961 2.60516 65.0165 2.23028 65.438 1.93933C65.7887 1.69687 66.1681 1.69501 66.4172 2.00834C66.7066 2.37016 66.9653 2.78794 67.1052 3.22064C67.4788 4.37698 67.3121 5.5613 67.1052 6.72324C66.561 9.79129 65.5204 12.6728 63.5965 15.2037C63.4931 15.3399 63.3781 15.4686 63.2593 15.5954H63.2631Z" fill="#ECE42D"/>
<path id="Vector_11" d="M75.8029 19.2717C75.6075 19.3035 75.4101 19.3165 75.2127 19.3072C73.674 19.2363 72.4361 19.1617 71.1982 19.1393C69.5771 19.1113 67.954 19.1356 66.3329 19.1356C66.2121 19.1356 66.1144 19.1524 65.9745 19.1263C65.8883 19.1114 65.827 19.0311 65.758 18.9771C65.5415 18.8092 65.5645 18.4623 65.8155 18.3485C65.8155 18.3485 65.8193 18.3485 65.8193 18.3467C68.5327 17.1661 71.3572 16.4182 74.3523 16.6196C75.4408 16.6924 76.5196 16.9833 77.585 17.2463C78.0449 17.36 78.5872 17.6361 78.5681 18.1658C78.5489 18.6917 77.9721 18.8409 77.5256 18.9472C76.899 19.0946 76.259 19.1953 75.8048 19.2717H75.8029Z" fill="#ECE42D"/>
<path id="Vector_12" d="M58.85 11.3072C58.85 9.77973 58.9975 8.34548 59.6816 7.02688C59.902 6.60164 60.2047 6.19319 60.5535 5.86121C61.0364 5.40053 61.5461 5.53855 61.8029 6.15216C62.098 6.85716 62.1344 7.61811 61.9581 8.32683C61.5653 9.90842 61.0709 11.4658 60.6129 13.0305C60.4922 13.4409 60.3849 13.8568 60.2124 14.2466C60.1913 14.2932 60.1626 14.3361 60.1262 14.3771C59.9192 14.6159 59.5034 14.5599 59.3942 14.2652C59.3942 14.2652 59.3942 14.2615 59.3942 14.2596C59.0454 13.2823 58.7733 12.2864 58.8519 11.3072H58.85Z" fill="#ECE42D"/>
<path id="Vector_13" d="M71.5949 12.5573C71.5546 13.4432 71.0392 14.0699 70.3091 14.4784C69.3931 14.9913 68.4139 15.3978 67.4596 15.8436C66.5858 16.252 65.712 16.6586 64.8286 17.0447C64.775 17.069 64.7117 17.069 64.6428 17.0615C64.4607 17.041 64.3208 16.8731 64.3706 16.7015C64.3783 16.6754 64.3898 16.653 64.4051 16.6363C65.963 14.885 67.6685 13.2959 69.7936 12.2011C70.1309 12.0277 70.5294 11.9288 70.9108 11.8896C71.3822 11.8411 71.6006 12.0967 71.5949 12.5592V12.5573Z" fill="#ECE42D"/>
<path id="Vector_14" d="M67.6053 21.3655C67.9598 21.3021 68.322 21.304 68.6746 21.3711C69.2494 21.4812 69.8339 21.5912 70.4049 21.7516C70.4567 21.7665 70.5065 21.7908 70.5525 21.8243C70.8974 22.0631 70.9242 22.5722 70.5793 22.811C70.5352 22.8408 70.4912 22.8613 70.4432 22.8707C69.8147 22.9732 69.1555 23.046 68.5308 22.9695C67.7739 22.8762 67.0343 22.6263 66.2965 22.4174C66.1355 22.3708 65.8845 22.1899 65.896 22.0985C65.919 21.9325 66.08 21.6901 66.2314 21.6509C66.674 21.5353 67.1282 21.4551 67.6053 21.3693V21.3655Z" fill="#ECE42D"/>
</g>
<g id="Group_4">
<path id="Vector_15" d="M166.427 11.4441C166.343 11.7234 166.009 11.8734 165.755 11.7182C165.599 11.6217 165.589 11.4614 165.607 11.1097C165.693 9.35476 165.398 7.65153 164.76 6.0207C164.163 4.49331 163.483 2.99695 162.82 1.49542C162.643 1.09202 162.666 0.731721 162.874 0.359355C163.045 0.0507741 163.331 -0.0871392 163.639 0.0576697C163.995 0.226614 164.349 0.447284 164.618 0.724835C165.339 1.46267 165.665 2.41599 165.952 3.36759C166.708 5.87761 167.02 8.42729 166.531 11.0287C166.505 11.17 166.467 11.3079 166.427 11.4459V11.4441Z" fill="#ECE42D"/>
<path id="Vector_16" d="M177.286 9.69965C177.151 9.79446 177.006 9.87376 176.854 9.93926C175.665 10.4409 174.703 10.8288 173.761 11.2598C172.527 11.8235 171.312 12.4252 170.089 13.0113C169.997 13.0544 169.932 13.1027 169.815 13.1337C169.744 13.1526 169.668 13.1164 169.595 13.0992C169.367 13.0509 169.252 12.7803 169.399 12.6044C169.399 12.6044 169.4 12.6027 169.402 12.601C171.002 10.7323 172.845 9.15144 175.183 8.22398C176.032 7.88781 176.956 7.71714 177.86 7.53268C178.249 7.45338 178.763 7.46545 178.951 7.87229C179.137 8.27569 178.758 8.59634 178.46 8.83769C178.044 9.17558 177.599 9.48243 177.286 9.70136V9.69965Z" fill="#ECE42D"/>
<path id="Vector_17" d="M161.465 9.79992C160.886 8.64662 160.451 7.51402 160.465 6.27107C160.47 5.87113 160.543 5.45394 160.679 5.07813C160.869 4.5575 161.306 4.47648 161.733 4.84712C162.223 5.27292 162.541 5.8332 162.679 6.4314C162.983 7.76571 163.203 9.11899 163.453 10.4654C163.518 10.817 163.596 11.1704 163.612 11.5273C163.614 11.5704 163.609 11.6135 163.598 11.6566C163.532 11.9117 163.198 12.0186 163.003 11.8359C163.003 11.8359 163.001 11.8342 162.999 11.8324C162.363 11.2204 161.781 10.5671 161.467 9.79992H161.465Z" fill="#ECE42D"/>
<path id="Vector_18" d="M171.556 6.15146C171.862 6.83414 171.712 7.49267 171.317 8.06328C170.821 8.78043 170.236 9.43898 169.686 10.1199C169.183 10.7423 168.678 11.3646 168.157 11.9731C168.125 12.0093 168.077 12.0335 168.024 12.0524C167.879 12.1024 167.711 12.0266 167.682 11.8783C167.679 11.8559 167.679 11.8352 167.682 11.8163C168.191 9.93373 168.873 8.12018 170.059 6.529C170.247 6.27731 170.511 6.05837 170.784 5.89115C171.122 5.68428 171.382 5.79806 171.554 6.14974L171.556 6.15146Z" fill="#ECE42D"/>
<path id="Vector_19" d="M171.898 14.235C172.141 14.0592 172.415 13.9299 172.707 13.854C173.182 13.7299 173.666 13.6006 174.158 13.5179C174.202 13.511 174.25 13.511 174.296 13.5179C174.647 13.5748 174.861 13.9488 174.693 14.2523C174.672 14.2902 174.645 14.3229 174.613 14.3453C174.179 14.6488 173.708 14.9418 173.207 15.109C172.599 15.3107 171.947 15.39 171.31 15.4969C171.172 15.5211 170.911 15.4728 170.886 15.4004C170.84 15.2676 170.871 15.0263 170.968 14.9418C171.258 14.6953 171.57 14.4712 171.898 14.2333V14.235Z" fill="#ECE42D"/>
</g>
</g>
</svg>
