<svg width="28" height="29" viewBox="0 0 28 29" fill="none" xmlns="http://www.w3.org/2000/svg">
<g id="Atomo/mail" clip-path="url(#clip0_404_12027)">
<g id="Group">
<path id="Vector" d="M1.97656 22.8904C4.61893 19.8462 7.19804 16.8751 9.79375 13.8848C10.4867 14.4564 11.1657 15.0094 11.837 15.5718C13.2074 16.72 14.7824 16.7213 16.1637 15.5725C16.837 15.0125 17.515 14.4577 18.2085 13.8858C20.8032 16.8748 23.382 19.8459 26.0275 22.8932C25.6454 22.9347 25.3389 22.9967 25.0325 22.997C20.2245 23.0032 15.4166 23.0014 10.6086 23.0014C8.05153 23.0014 5.49445 23.0047 2.93764 22.997C2.64078 22.9959 2.34393 22.9329 1.97708 22.8907L1.97656 22.8904Z" fill="#822E99"/>
<path id="Vector_2" d="M26.0418 6.2319C25.5648 6.62675 25.088 7.02212 24.6105 7.41646C21.5665 9.92998 18.5246 12.4461 15.477 14.9552C14.5564 15.7133 13.4405 15.7216 12.5251 14.9679C9.05802 12.1137 5.5982 9.25072 2.13631 6.39057C2.07642 6.34105 2.02198 6.28505 1.95068 6.21842C2.24546 6.01153 2.57005 6.00194 2.89179 6.0009C4.25446 5.99701 5.61713 5.99909 6.97954 5.99909C12.9928 5.99909 19.0061 5.99727 25.0193 6.00401C25.3556 6.00427 25.6921 6.07427 26.0284 6.11161C26.0328 6.15179 26.0374 6.19172 26.0418 6.2319Z" fill="#822E99"/>
<path id="Vector_3" d="M1.26577 6.82715C3.87677 8.98315 6.47611 11.1298 9.10473 13.3003C6.5124 16.2904 3.9294 19.27 1.27614 22.3303C1.15922 21.9974 1.05136 21.7244 0.970217 21.4442C0.935735 21.3247 0.953106 21.1891 0.953106 21.061C0.952587 16.6977 0.953106 12.3346 0.95155 7.97126C0.95155 7.57226 0.992254 7.18882 1.26603 6.82715H1.26577Z" fill="#822E99"/>
<path id="Vector_4" d="M26.6814 22.2786C24.0785 19.2764 21.4949 16.2968 18.8979 13.3013C21.5198 11.1383 24.1212 8.99213 26.7895 6.79102C26.8816 7.08139 26.9723 7.32198 27.0307 7.57009C27.0638 7.71113 27.0475 7.86487 27.0475 8.0129C27.048 12.3469 27.0465 16.6807 27.0504 21.0148C27.0509 21.4596 26.991 21.8784 26.6812 22.2789L26.6814 22.2786Z" fill="#822E99"/>
</g>
</g>
<defs>
<clipPath id="clip0_404_12027">
<rect width="28" height="28" fill="white" transform="translate(0 0.5)"/>
</clipPath>
</defs>
</svg>
