<svg width="33" height="33" viewBox="0 0 33 33" fill="none" xmlns="http://www.w3.org/2000/svg">
<g clip-path="url(#clip0_370_1165)">
<path d="M2.32959 26.3884C5.44381 22.8006 8.48348 19.2989 11.5427 15.7746C12.3595 16.4484 13.1597 17.1001 13.9508 17.7629C15.566 19.1162 17.4222 19.1177 19.0502 17.7638C19.8437 17.1038 20.6428 16.4499 21.4601 15.7758C24.5181 19.2986 27.5575 22.8003 30.6754 26.3918C30.225 26.4406 29.8638 26.5137 29.5026 26.514C23.8361 26.5213 18.1696 26.5192 12.5031 26.5192C9.48937 26.5192 6.47567 26.5231 3.46228 26.514C3.11242 26.5128 2.76256 26.4385 2.3302 26.3887L2.32959 26.3884Z" fill="#595959"/>
<path d="M30.6918 6.75522C30.1296 7.22058 29.5677 7.68655 29.0049 8.1513C25.4173 11.1137 21.8323 14.0791 18.2405 17.0362C17.1554 17.9297 15.8403 17.9395 14.7614 17.0512C10.6752 13.6874 6.59757 10.3131 2.51748 6.94222C2.4469 6.88386 2.38273 6.81786 2.29871 6.73933C2.64612 6.4955 3.02868 6.48419 3.40787 6.48297C5.01387 6.47839 6.61987 6.48083 8.22557 6.48083C15.3126 6.48083 22.3997 6.47869 29.4867 6.48664C29.883 6.48694 30.2796 6.56944 30.676 6.61344C30.6811 6.6608 30.6866 6.70786 30.6918 6.75522Z" fill="#595959"/>
<path d="M1.4917 7.45677C4.56895 9.99777 7.63245 12.5278 10.7305 15.0859C7.67523 18.6099 4.63098 22.1216 1.50392 25.7284C1.36612 25.3361 1.239 25.0143 1.14337 24.684C1.10273 24.5431 1.1232 24.3833 1.1232 24.2324C1.12259 19.0899 1.1232 13.9477 1.12137 8.80519C1.12137 8.33494 1.16934 7.88302 1.492 7.45677H1.4917Z" fill="#595959"/>
<path d="M31.446 25.6676C28.3782 22.1293 25.3333 18.6175 22.2726 15.0871C25.3627 12.5379 28.4286 10.0085 31.5734 7.41431C31.6819 7.75653 31.7888 8.04009 31.8576 8.3325C31.8967 8.49872 31.8774 8.67992 31.8774 8.85439C31.878 13.9624 31.8762 19.07 31.8808 24.178C31.8814 24.7023 31.8108 25.1958 31.4457 25.6679L31.446 25.6676Z" fill="#595959"/>
</g>
<defs>
<clipPath id="clip0_370_1165">
<rect width="33" height="33" fill="white"/>
</clipPath>
</defs>
</svg>
