<svg width="32" height="32" viewBox="0 0 32 32" fill="none" xmlns="http://www.w3.org/2000/svg">
<g id="Atomo/saludable">
<g id="Group">
<path id="Vector" d="M26 4H6C5.46957 4 4.96086 4.21071 4.58579 4.58579C4.21071 4.96086 4 5.46957 4 6V26C4 26.5304 4.21071 27.0391 4.58579 27.4142C4.96086 27.7893 5.46957 28 6 28H26C26.5304 28 27.0391 27.7893 27.4142 27.4142C27.7893 27.0391 28 26.5304 28 26V6C28 5.46957 27.7893 4.96086 27.4142 4.58579C27.0391 4.21071 26.5304 4 26 4Z" stroke="#822E99" stroke-width="2.5"/>
<path id="Vector_2" d="M18.2 8.00002C16.9847 8.00002 16 8.95669 16 10.136C16 12.2727 18.6 14.2147 20 14.6667C21.4 14.2147 24 12.2734 24 10.136C24 8.95603 23.0153 8.00002 21.8 8.00002C21.4496 7.99836 21.1037 8.07979 20.7908 8.23762C20.478 8.39546 20.2069 8.6252 20 8.90803C19.7931 8.6252 19.522 8.39546 19.2092 8.23762C18.8963 8.07979 18.5504 7.99836 18.2 8.00002Z" stroke="#822E99" stroke-width="2.5" stroke-linecap="round" stroke-linejoin="round"/>
</g>
</g>
</svg>
