<svg width="36" height="36" viewBox="0 0 36 36" fill="none" xmlns="http://www.w3.org/2000/svg">
<g clip-path="url(#clip0_370_1174)">
<path d="M13.0013 33.3093C12.4163 33.141 11.9183 32.863 11.6246 32.2917C10.976 31.03 11.8623 29.5303 13.2823 29.5263C16.4463 29.5177 19.6103 29.5233 22.7743 29.525C22.8813 29.525 22.9903 29.5407 23.0956 29.5617C24.016 29.7477 24.6423 30.4807 24.6546 31.3823C24.667 32.2857 24.0609 33.0463 23.1616 33.2593C23.1253 33.268 23.0926 33.2923 23.058 33.309H13.0013V33.3093Z" fill="#595959"/>
<path d="M8.37061 12.6973C8.37328 7.99366 11.7456 3.97233 16.3739 3.15566C21.5343 2.245 26.5093 5.67566 27.5013 10.8333C28.0263 13.563 27.463 16.0593 25.836 18.305C23.7726 21.1533 21.6909 23.9883 19.6133 26.8267C18.7626 27.9887 17.3206 28.0113 16.4753 26.86C14.3409 23.9537 12.2069 21.047 10.0986 18.122C8.93728 16.5103 8.36795 14.6897 8.37061 12.6973ZM18.0216 16.2723C19.5783 16.2757 20.8649 14.996 20.8683 13.441C20.8716 11.8837 19.5926 10.598 18.0373 10.5947C16.4796 10.5913 15.1939 11.87 15.1906 13.4257C15.1873 14.982 16.4673 16.2693 18.0216 16.2727V16.2723Z" fill="#595959"/>
</g>
<defs>
<clipPath id="clip0_370_1174">
<rect width="36" height="36" fill="white"/>
</clipPath>
</defs>
</svg>
