<svg width="32" height="33" viewBox="0 0 32 33" fill="none" xmlns="http://www.w3.org/2000/svg">
<g id="Atomo/ubicacion" clip-path="url(#clip0_404_12034)">
<g id="Group">
<path id="Vector" d="M11.5565 30.1081C11.0365 29.9584 10.5938 29.7113 10.3328 29.2035C9.75618 28.082 10.544 26.7489 11.8063 26.7454C14.6187 26.7377 17.4311 26.7427 20.2436 26.7442C20.3387 26.7442 20.4356 26.7581 20.5292 26.7768C21.3473 26.9421 21.904 27.5937 21.915 28.3952C21.926 29.1981 21.3873 29.8743 20.5879 30.0636C20.5556 30.0713 20.5266 30.0929 20.4957 30.1078H11.5565V30.1081Z" fill="#822E99"/>
<path id="Vector_2" d="M7.44044 11.7865C7.44281 7.60542 10.4404 4.0309 14.5545 3.30497C19.1415 2.49549 23.5637 5.54497 24.4455 10.1296C24.9121 12.5559 24.4114 14.7749 22.9652 16.771C21.1311 19.3029 19.2807 21.8229 17.4339 24.3459C16.6778 25.3788 15.396 25.3989 14.6446 24.3755C12.7474 21.7921 10.8505 19.2084 8.97644 16.6084C7.94414 15.1758 7.43807 13.5574 7.44044 11.7865ZM16.0191 14.9642C17.4028 14.9672 18.5465 13.8297 18.5495 12.4475C18.5524 11.0632 17.4155 9.92038 16.033 9.91742C14.6484 9.91445 13.5056 11.051 13.5027 12.4339C13.4997 13.8173 14.6375 14.9616 16.0191 14.9645V14.9642Z" fill="#822E99"/>
</g>
</g>
<defs>
<clipPath id="clip0_404_12034">
<rect width="32" height="32" fill="white" transform="translate(0 0.5)"/>
</clipPath>
</defs>
</svg>
