<svg width="32" height="32" viewBox="0 0 32 32" fill="none" xmlns="http://www.w3.org/2000/svg">
<g id="Atomo/vaca">
<path id="Vector" d="M29.4667 28.6667L3.20001 2.26672L1.46667 4.00006L9.20001 11.7334L9.06668 12.0001C8.53334 11.3334 7.73334 10.8001 6.93334 10.5334C5.60001 10.1334 3.06667 10.2667 2.66667 11.3334C2.26667 12.4001 4.40001 14.0001 5.73334 14.2667C6.40001 14.4001 7.33334 14.4001 8.00001 14.2667V16.0001C8.00001 17.7334 8.66668 19.4667 9.60001 20.8001C8.66668 21.7334 8.00001 22.8001 8.00001 24.0001C8.00001 26.9334 11.6 29.3334 16 29.3334C19.3333 29.3334 22.2667 28.0001 23.4667 26.0001L27.8667 30.4001L29.4667 28.6667ZM12.5333 14.9334C12.1333 15.2001 12 15.6001 12 16.0001C12 16.8001 12.5333 17.3334 13.3333 17.3334C13.7333 17.3334 14.1333 17.2001 14.4 16.8001L16.2667 18.6667H16.1333C14.6667 18.6667 13.2 18.9334 12 19.4667C11.0667 18.5334 10.6667 17.3334 10.6667 16.0001C10.6667 15.2001 10.8 14.4001 11.2 13.7334L12.5333 14.9334ZM21.3333 24.0001C21.3333 25.4667 18.9333 26.6667 16 26.6667C13.0667 26.6667 10.6667 25.4667 10.6667 24.0001C10.6667 22.5334 13.0667 21.3334 16 21.3334C17.3333 21.3334 18.5333 21.6001 19.4667 22.0001L21.3333 23.8667V24.0001ZM12.9333 8.66672L10.4 6.13339C11.0667 5.20006 12 4.40006 13.3333 4.00006L13.2 4.13339C12.8 4.80006 11.8667 6.66672 12.9333 8.66672ZM15.0667 10.8001L12.9333 8.66672C13.8667 8.26672 14.9333 8.00006 16 8.00006C17.0667 8.00006 18.1333 8.26672 19.0667 8.66672C20.1333 6.66672 19.0667 4.80006 18.8 4.26672L18.6667 4.00006C22.6667 5.33339 22.9333 9.33339 22.1333 10.9334L22.9333 12.0001C23.4667 11.3334 24.2667 10.8001 25.0667 10.5334C26.4 10.1334 28.9333 10.2667 29.3333 11.3334C29.7333 12.4001 27.6 14.0001 26.2667 14.2667C25.6 14.4001 24.6667 14.4001 24 14.2667V16.0001C24 17.0667 23.7333 18.1334 23.3333 19.0667L21.2 16.9334C21.2 16.6667 21.3333 16.2667 21.3333 16.0001C21.3333 13.0667 18.9333 10.6667 16 10.6667C15.7333 10.6667 15.3333 10.6667 15.0667 10.8001ZM18.6667 24.6667C18.6667 25.0667 18.4 25.3334 18 25.3334C17.6 25.3334 17.3333 25.0667 17.3333 24.6667C17.3333 24.2667 17.6 24.0001 18 24.0001C18.4 24.0001 18.6667 24.2667 18.6667 24.6667ZM14.6667 24.6667C14.6667 25.0667 14.4 25.3334 14 25.3334C13.6 25.3334 13.3333 25.0667 13.3333 24.6667C13.3333 24.2667 13.6 24.0001 14 24.0001C14.4 24.0001 14.6667 24.2667 14.6667 24.6667Z" fill="#822E99"/>
</g>
</svg>
