<svg width="36" height="36" viewBox="0 0 36 36" fill="none" xmlns="http://www.w3.org/2000/svg">
<g id="Atomo/whatsapp" clip-path="url(#clip0_503_918)">
<path id="Vector" d="M0.762373 17.7844C0.761536 20.8091 1.55186 23.7625 3.05465 26.3657L0.618652 35.2599L9.72079 32.8733C12.2383 34.2439 15.059 34.962 17.9254 34.9622H17.933C27.3955 34.9622 35.0983 27.2622 35.1023 17.798C35.1041 13.2119 33.3198 8.89942 30.0778 5.65495C26.8364 2.41077 22.5255 0.623187 17.9323 0.621094C8.46861 0.621094 0.76642 8.32063 0.762513 17.7844" fill="url(#paint0_linear_503_918)"/>
<path id="Vector_2" d="M0.149302 17.779C0.148326 20.9125 0.966977 23.9715 2.52335 26.6679L0 35.881L9.42851 33.4088C12.0264 34.8253 14.9513 35.572 17.9276 35.5732H17.9353C27.7373 35.5732 35.7167 27.5962 35.7209 17.7932C35.7226 13.0423 33.874 8.57484 30.5163 5.21414C27.1581 1.85386 22.693 0.00195349 17.9353 0C8.13153 0 0.153209 7.97581 0.149302 17.779ZM5.76419 26.2035L5.41214 25.6447C3.93223 23.2916 3.15112 20.5723 3.15223 17.7801C3.15544 9.63195 9.7867 3.00279 17.9408 3.00279C21.8897 3.00447 25.6007 4.54381 28.392 7.33674C31.1831 10.13 32.719 13.843 32.718 17.7921C32.7144 25.9402 26.083 32.5702 17.9353 32.5702H17.9294C15.2764 32.5688 12.6745 31.8564 10.4054 30.51L9.8654 30.1898L4.27033 31.6567L5.76419 26.2034V26.2035Z" fill="url(#paint1_linear_503_918)"/>
<path id="Vector_3" d="M13.49 10.3466C13.1571 9.60661 12.8067 9.59168 12.4901 9.5787C12.2309 9.56754 11.9345 9.56837 11.6384 9.56837C11.342 9.56837 10.8605 9.67986 10.4535 10.1243C10.046 10.5691 8.89795 11.6441 8.89795 13.8305C8.89795 16.017 10.4905 18.13 10.7125 18.4267C10.9347 18.723 13.7868 23.3533 18.3039 25.1346C22.0579 26.6149 22.8219 26.3205 23.6366 26.2463C24.4515 26.1723 26.266 25.1716 26.6362 24.1339C27.0066 23.0963 27.0066 22.2069 26.8956 22.021C26.7845 21.8359 26.4881 21.7247 26.0437 21.5025C25.5992 21.2802 23.4143 20.2051 23.007 20.0568C22.5996 19.9086 22.3033 19.8347 22.007 20.2796C21.7106 20.7239 20.8596 21.7247 20.6002 22.021C20.3411 22.3181 20.0817 22.3551 19.6374 22.1328C19.1927 21.9098 17.7615 21.4411 16.0635 19.9273C14.7424 18.7494 13.8505 17.2947 13.5912 16.8497C13.3319 16.4054 13.5634 16.1646 13.7863 15.9432C13.9859 15.744 14.2308 15.4242 14.4533 15.1648C14.6748 14.9053 14.7488 14.7201 14.897 14.4238C15.0453 14.1271 14.9711 13.8676 14.8601 13.6453C14.7488 13.423 13.8852 11.2252 13.49 10.3466Z" fill="white"/>
</g>
<defs>
<linearGradient id="paint0_linear_503_918" x1="1724.8" y1="3464.51" x2="1724.8" y2="0.621094" gradientUnits="userSpaceOnUse">
<stop stop-color="#1FAF38"/>
<stop offset="1" stop-color="#60D669"/>
</linearGradient>
<linearGradient id="paint1_linear_503_918" x1="1786.05" y1="3588.1" x2="1786.05" y2="0" gradientUnits="userSpaceOnUse">
<stop stop-color="#F9F9F9"/>
<stop offset="1" stop-color="white"/>
</linearGradient>
<clipPath id="clip0_503_918">
<rect width="35.7209" height="36" fill="white"/>
</clipPath>
</defs>
</svg>
