<svg width="36" height="36" viewBox="0 0 36 36" fill="none" xmlns="http://www.w3.org/2000/svg">
<g id="Atomo/whatsapp" clip-path="url(#clip0_503_918)">
<path id="Vector" d="M0.762373 17.7844C0.761536 20.8091 1.55186 23.7625 3.05465 26.3657L0.618652 35.2599L9.72079 32.8733C12.2383 34.2439 15.059 34.962 17.9254 34.9622H17.933C27.3955 34.9622 35.0983 27.2622 35.1023 17.798C35.1041 13.2119 33.3198 8.89942 30.0778 5.65495C26.8364 2.41077 22.5255 0.623187 17.9323 0.621094C8.46861 0.621094 0.76642 8.32063 0.762513 17.7844" fill="url(#paint0_linear_503_918)"/>
<path id="Vector_2" d="M0.149302 17.779C0.148326 20.9125 0.966977 23.9715 2.52335 26.6679L0 35.881L9.42851 33.4088C12.0264 34.8253 14.9513 35.572 17.9276 35.5732H17.9353C27.7373 35.5732 35.7167 27.5962 35.7209 17.7932C35.7226 13.0423 33.874 8.57484 30.5163 5.21414C27.1581 1.85386 22.693 0.00195349 17.9353 0C8.13153 0 0.153209 7.97581 0.149302 17.779ZM5.76419 26.2035L5.41214 25.6447C3.93223 23.2916 3.15112 20.5723 3.15223 17.7801C3.15544 9.63195 9.7867 3.00279 17.9408 3.00279C21.8897 3.00447 25.6007 4.54381 28.392 7.33674C31.1831 10.13 32.719 13.843 32.718 17.7921C32.7144 25.9402 26.083 32.5702 17.9353 32.5702H17.9294C15.2764 32.5688 12.6745 31.8564 10.4054 30.51L9.8654 30.1898L4.27033 31.6567L5.76419 26.2034V26.2035Z" fill="url(#paint1_linear_503_918)"/>
<path id="Vector_3" d="M13.49 10.3466C13.1571 9.60661 12.8067 9.59168 12.4901 9.5787C12.2309 9.56754 11.9345 9.56837 11.6384 9.56837C11.342 9.56837 10.8605 9.67986 10.4535 10.1243C10.046 10.5691 8.89795 11.6441 8.89795 13.8305C8.89795 16.017 10.4905 18.13 10.7125 18.4267C10.9347 18.723 13.7868 23.3533 18.3039 25.1346C22.0579 26.6149 22.8219 26.3205 23.6366 26.2463C24.4515 26.1723 26.266 25.1716 26.6362 24.1339C27.0066 23.0963 27.0066 22.2069 26.8956 22.021C26.7845 21.8359 26.4881 21.7247 26.0437 21.5025C25.5992 21.2802 23.4143 20.2051 23.007 20.0568C22.5996 19.9086 22.3033 19.8347 22.007 20.2796C21.7106 20.7239 20.8596 21.7247 20.6002 22.021C20.3411 22.3181 20.0817 22.3551 19.6374 22.1328C19.1927 21.9098 17.7615 21.4411 16.0635 19.9273C14.7424 18.7494 13.8505 17.2947 13.5912 16.8497C13.3319 16.4054 13.5634 16.1646 13.7863 15.9432C13.9859 15.744 14.2308 15.4242 14.4533 15.1648C14.6748 14.9053 14.7488 14.7201 14.897 14.4238C15.0453 14.1271 14.9711 13.8676 14.8601 13.6453C14.7488 13.423 13.8852 11.2252 13.49 10.3466Z" fill="white"/>
</g>
<defs>
<linearGradient id="paint0_linear_503_918" x1="1724.8" y1="3464.51" x2="1724.8" y2="0.621094" gradientUnits="userSpaceOnUse">
<stop stop-color="#1FAF38"/>
<stop offset="1" stop-color="#60D669"/>
</linearGradient>
<linearGradient id="paint1_linear_503_918" x1="1786.05" y1="3588.1" x2="1786.05" y2="0" gradientUnits="userSpaceOnUse">
<stop stop-color="#F9F9F9"/>
<stop offset="1" stop-color="white"/>
</linearGradient>
<clipPath id="clip0_503_918">
<rect width="35.7209" height="36" fill="white"/>
</clipPath>
</defs>
</svg>
<svg width="29" height="28" viewBox="0 0 29 28" fill="none" xmlns="http://www.w3.org/2000/svg">
<g id="Atomo" clip-path="url(#clip0_338_10820)">
<path id="Vector" d="M1.20138 13.8327C1.20073 16.1852 1.81543 18.4823 2.98427 20.507L1.0896 27.4247L8.16904 25.5685C10.1271 26.6344 12.321 27.193 14.5504 27.1931H14.5563C21.9161 27.1931 27.9071 21.2043 27.9102 13.8432C27.9116 10.2762 26.5238 6.9221 24.0023 4.39862C21.4812 1.87537 18.1283 0.485026 14.5558 0.483398C7.19512 0.483398 1.20453 6.47193 1.20149 13.8327" fill="url(#paint0_linear_338_10820)"/>
<path id="Vector_2" d="M0.724645 13.8281C0.723885 16.2653 1.36061 18.6445 2.57113 20.7417L0.608521 27.9074L7.94181 25.9846C9.96237 27.0863 12.2373 27.6671 14.5522 27.668H14.5582C22.182 27.668 28.3882 21.4637 28.3915 13.8392C28.3928 10.144 26.955 6.66932 24.3434 4.05544C21.7315 1.44189 18.2586 0.00151938 14.5582 0C6.93305 0 0.727683 6.20341 0.724645 13.8281ZM5.09178 20.3805L4.81796 19.9459C3.66692 18.1157 3.05939 16.0007 3.06026 13.829C3.06275 7.49152 8.2204 2.3355 14.5625 2.3355C17.6338 2.33681 20.5202 3.53408 22.6912 5.70636C24.8621 7.87885 26.0566 10.7668 26.0559 13.8383C26.053 20.1757 20.8953 25.3324 14.5582 25.3324H14.5536C12.4902 25.3313 10.4665 24.7772 8.70161 23.73L8.28161 23.4809L3.92989 24.6219L5.09178 20.3804V20.3805Z" fill="url(#paint1_linear_338_10820)"/>
<path id="Vector_3" d="M11.1007 8.04716C10.8417 7.47164 10.5692 7.46003 10.323 7.44994C10.1213 7.44125 9.89082 7.44191 9.66053 7.44191C9.43001 7.44191 9.05549 7.52862 8.73891 7.87428C8.42201 8.22026 7.52905 9.05636 7.52905 10.7569C7.52905 12.4575 8.76767 14.1009 8.94034 14.3318C9.11322 14.5622 11.3315 18.1635 14.8448 19.549C17.7646 20.7003 18.3588 20.4713 18.9924 20.4136C19.6262 20.3561 21.0375 19.5777 21.3255 18.7706C21.6136 17.9636 21.6136 17.2719 21.5272 17.1273C21.4408 16.9833 21.2103 16.8968 20.8646 16.724C20.5189 16.5511 18.8196 15.7149 18.5028 15.5996C18.1859 15.4843 17.9555 15.4268 17.725 15.7729C17.4944 16.1184 16.8325 16.8968 16.6308 17.1273C16.4293 17.3584 16.2275 17.3871 15.882 17.2142C15.5361 17.0408 14.4229 16.6763 13.1022 15.4989C12.0747 14.5827 11.381 13.4513 11.1794 13.1052C10.9777 12.7596 11.1578 12.5723 11.3311 12.4001C11.4864 12.2452 11.6769 11.9965 11.8498 11.7947C12.0222 11.5929 12.0797 11.4488 12.195 11.2183C12.3103 10.9876 12.2526 10.7857 12.1663 10.6129C12.0797 10.44 11.408 8.73056 11.1007 8.04716Z" fill="white"/>
</g>
<defs>
<linearGradient id="paint0_linear_338_10820" x1="1342.12" y1="2694.62" x2="1342.12" y2="0.483398" gradientUnits="userSpaceOnUse">
<stop stop-color="#1FAF38"/>
<stop offset="1" stop-color="#60D669"/>
</linearGradient>
<linearGradient id="paint1_linear_338_10820" x1="1389.76" y1="2790.74" x2="1389.76" y2="0" gradientUnits="userSpaceOnUse">
<stop stop-color="#F9F9F9"/>
<stop offset="1" stop-color="white"/>
</linearGradient>
<clipPath id="clip0_338_10820">
<rect width="27.7829" height="28" fill="white" transform="translate(0.608521)"/>
</clipPath>
</defs>
</svg>
