<svg width="29" height="28" viewBox="0 0 29 28" fill="none" xmlns="http://www.w3.org/2000/svg">
<g id="Atomo/whatsapp">
<path id="Vector" d="M22.7249 5.72832C21.6553 4.6479 20.3813 3.79127 18.9772 3.20838C17.573 2.62549 16.0669 2.32803 14.5466 2.33332C8.1766 2.33332 2.98494 7.52499 2.98494 13.895C2.98494 15.9367 3.5216 17.92 4.52494 19.67L2.8916 25.6667L9.0166 24.0567C10.7083 24.9783 12.6099 25.4683 14.5466 25.4683C20.9166 25.4683 26.1083 20.2767 26.1083 13.9067C26.1083 10.815 24.9066 7.90999 22.7249 5.72832ZM14.5466 23.5083C12.8199 23.5083 11.1283 23.0417 9.6466 22.1667L9.2966 21.9567L5.6566 22.9133L6.62494 19.3667L6.3916 19.005C5.43231 17.4731 4.92293 15.7024 4.9216 13.895C4.9216 8.59832 9.23827 4.28165 14.5349 4.28165C17.1016 4.28165 19.5166 5.28499 21.3249 7.10499C22.2203 7.99628 22.9299 9.05643 23.4126 10.224C23.8952 11.3915 24.1413 12.6433 24.1366 13.9067C24.1599 19.2033 19.8433 23.5083 14.5466 23.5083ZM19.8199 16.3217C19.5283 16.1817 18.1049 15.4817 17.8483 15.3767C17.5799 15.2833 17.3933 15.2367 17.1949 15.5167C16.9966 15.8083 16.4483 16.4617 16.2849 16.6483C16.1216 16.8467 15.9466 16.87 15.6549 16.7183C15.3633 16.5783 14.4299 16.2633 13.3333 15.2833C12.4699 14.5133 11.8983 13.5683 11.7233 13.2767C11.5599 12.985 11.6999 12.8333 11.8516 12.6817C11.9799 12.5533 12.1433 12.3433 12.2833 12.18C12.4233 12.0167 12.4816 11.8883 12.5749 11.7017C12.6683 11.5033 12.6216 11.34 12.5516 11.2C12.4816 11.06 11.8983 9.63665 11.6649 9.05332C11.4316 8.49332 11.1866 8.56332 11.0116 8.55165H10.4516C10.2533 8.55165 9.94993 8.62165 9.6816 8.91332C9.42493 9.20499 8.67827 9.90499 8.67827 11.3283C8.67827 12.7517 9.7166 14.1283 9.8566 14.315C9.9966 14.5133 11.8983 17.43 14.7916 18.6783C15.4799 18.9817 16.0166 19.1567 16.4366 19.285C17.1249 19.5067 17.7549 19.4717 18.2566 19.4017C18.8166 19.32 19.9716 18.7017 20.2049 18.025C20.4499 17.3483 20.4499 16.7767 20.3683 16.6483C20.2866 16.52 20.1116 16.4617 19.8199 16.3217Z" fill="#151515"/>
</g>
</svg>
